<svg width="32" height="32" viewBox="0 0 32 32" fill="none" xmlns="http://www.w3.org/2000/svg">
  <g clip-path="url(#clip0_5_1750)">
    <path d="M13.1703 22.1094L13.0875 22.0469H12.9297C12.7438 22.0469 12.7031 22.0281 12.6297 21.9125C12.5328 21.7625 12.5234 21.6031 12.6016 21.4297C12.6234 21.3781 12.6609 21.3156 12.6844 21.2922L12.7266 21.2469L12.6797 21.2578C12.5938 21.2781 12.5078 21.3234 12.4625 21.3734C12.4281 21.4094 12.4016 21.4219 12.3641 21.4219C12.3141 21.4219 12.3125 21.4188 12.3125 21.3609C12.3125 21.3109 12.325 21.2859 12.3844 21.2203C12.4609 21.1359 12.5547 21.0719 12.6438 21.0453C12.6984 21.0297 19.3031 21.0234 19.3297 21.0406C19.3375 21.0453 19.3438 21.0797 19.3438 21.1156V21.1828L19.2719 21.1938C19.2313 21.1984 18.15 21.2031 16.8688 21.2031C15.5875 21.2031 14.2391 21.2078 13.8734 21.2141L13.2078 21.2234L13.2609 21.2703C13.2906 21.2969 13.3375 21.35 13.3641 21.3891C13.4141 21.4594 13.4141 21.4641 13.4172 21.6594C13.4188 21.7672 13.4266 21.8719 13.4359 21.8891C13.4453 21.9063 13.4531 21.9594 13.4531 22.0078C13.4531 22.0797 13.4469 22.1016 13.4141 22.1328C13.3547 22.1938 13.2719 22.1859 13.1703 22.1094ZM12.9625 21.6781C12.9828 21.6641 13.0234 21.6469 13.0516 21.6422L13.1016 21.6313L13.0438 21.5719C12.9688 21.4969 12.925 21.5 12.8844 21.5828C12.8578 21.6391 12.8578 21.6438 12.8828 21.6734C12.9172 21.7094 12.9141 21.7094 12.9625 21.6781Z" fill="#F7E4DF"/>
    <path d="M13.9953 22.0062C13.9828 21.9828 13.964 21.4922 13.9765 21.4547C13.9859 21.4219 13.9937 21.4203 14.1218 21.425L14.2578 21.4297L14.2625 21.6984C14.2656 21.9609 14.2656 21.9672 14.2312 21.9859C14.189 22.0094 14.0078 22.025 13.9953 22.0062Z" fill="#F7E4DF"/>
    <path d="M13.5906 21.9125C13.55 21.9 13.5421 21.8656 13.5343 21.6531L13.5281 21.4562L13.5875 21.4391C13.6703 21.4156 13.8 21.4172 13.8343 21.4422C13.8578 21.4594 13.8625 21.4906 13.864 21.6672C13.8656 21.7906 13.8609 21.8797 13.8515 21.8891C13.8343 21.9062 13.6328 21.925 13.5906 21.9125Z" fill="#F7E4DF"/>
    <path d="M14.4063 21.8828C14.3922 21.8656 14.3922 21.8172 14.4047 21.6688C14.4156 21.5641 14.4281 21.4719 14.4344 21.4672C14.4578 21.4438 14.6359 21.4219 14.7922 21.4219H14.9531V21.4938C14.9531 21.6375 14.7969 21.875 14.6875 21.8969C14.5922 21.9156 14.4266 21.9078 14.4063 21.8828Z" fill="#F7E4DF"/>
    <path d="M21.9843 15.5359C21.9843 10.2828 21.9812 9.64844 21.9593 9.51563C21.9453 9.43438 21.9312 9.32344 21.9265 9.27031L21.9187 9.17188H21.9671C21.9953 9.17188 22.0359 9.18125 22.0593 9.19375C22.1625 9.24844 22.4531 9.59531 22.8312 10.1172C23.1078 10.5 23.1453 10.5547 23.3281 10.8594C23.6828 11.4469 23.9578 12.0609 24.1859 12.7656C24.2968 13.1141 24.4234 13.6938 24.4843 14.1328C24.55 14.6219 24.5531 14.6844 24.5546 15.4141C24.5546 16.1094 24.5531 16.1422 24.5109 16.4531C24.4203 17.1313 24.3265 17.55 24.1453 18.0922C24.0234 18.4563 23.8906 18.775 23.6875 19.1859C23.4812 19.6031 23.1656 20.1203 22.9296 20.4234C22.8812 20.4875 22.814 20.575 22.7828 20.6172C22.6718 20.7641 22.3828 21.1 22.2093 21.2859C22.1093 21.3922 22.089 21.4063 22.0406 21.4063H21.9843V15.5359ZM22.7015 18.3656C22.7203 18.3422 22.7343 18.3141 22.7343 18.3031C22.7343 18.2734 22.6781 18.2188 22.6484 18.2188C22.614 18.2188 22.5625 18.2766 22.5625 18.3125C22.5625 18.3484 22.614 18.4063 22.6468 18.4063C22.6593 18.4063 22.6843 18.3875 22.7015 18.3656ZM23.1312 16.9219C23.1609 16.8953 23.1937 16.8484 23.2046 16.8172C23.2203 16.7688 23.2187 16.7594 23.1906 16.7297C23.1625 16.7016 23.1531 16.7 23.1109 16.7188C23.0656 16.7375 23.0093 16.7344 22.9281 16.7109C22.9046 16.7031 22.8921 16.7109 22.8781 16.7422C22.8468 16.8094 22.8562 16.8438 22.9203 16.9078C22.9968 16.9859 23.0546 16.9891 23.1312 16.9219Z" fill="#F7E4DF"/>
    <path d="M9.87967 21.3297C9.86092 21.3047 9.76873 21.2047 9.67654 21.1078C9.34686 20.7641 9.01404 20.3188 8.65467 19.7422C8.25936 19.1109 7.88436 18.2 7.70311 17.4406C7.60154 17.0078 7.56717 16.7938 7.49998 16.1328C7.46404 15.7813 7.45623 15.0844 7.48436 14.7969C7.57811 13.8438 7.64842 13.4656 7.85154 12.7875C8.16092 11.7594 8.79842 10.5984 9.59217 9.61719C9.64686 9.54844 9.75623 9.42656 9.83436 9.34688C9.96561 9.21406 9.98123 9.20312 10.0375 9.20312H10.0984L10.089 9.27813C10.0844 9.31875 10.0672 9.40781 10.0531 9.47656C10.0265 9.59531 10.025 9.92031 10.0203 15.4891L10.0156 21.375H9.96404C9.92498 21.375 9.90311 21.3641 9.87967 21.3297ZM8.90623 14.3281C8.91873 14.3047 8.91404 14.2891 8.88279 14.2547L8.84373 14.2109L8.81248 14.2484C8.77498 14.2922 8.77342 14.325 8.80623 14.3609C8.83592 14.3938 8.87811 14.3797 8.90623 14.3281ZM8.99842 11.6375C9.02498 11.6094 9.04686 11.5781 9.04686 11.5688C9.04686 11.5375 8.96561 11.4688 8.92967 11.4688C8.89842 11.4688 8.79686 11.5609 8.79686 11.5875C8.79686 11.6063 8.89998 11.6875 8.92498 11.6875C8.93904 11.6875 8.97342 11.6641 8.99842 11.6375Z" fill="#F7E4DF"/>
    <path d="M19.5562 19.8797C19.5531 19.8641 19.5437 19.8266 19.539 19.7969C19.5125 19.6688 19.414 19.5359 19.3 19.4781C19.2765 19.4672 19.2156 19.4453 19.164 19.4297C19.1125 19.4156 19.0609 19.3953 19.0515 19.3875C19.0328 19.3719 19.0219 19.25 19.039 19.25C19.0422 19.25 19.1125 19.2328 19.1953 19.2125C19.3656 19.1688 19.4422 19.1281 19.4656 19.0656C19.489 19.0109 19.5281 18.8484 19.5344 18.7891C19.539 18.7438 19.5422 18.7422 19.6265 18.7375L19.714 18.7328L19.7219 18.8203C19.7312 18.9328 19.8172 19.1031 19.8875 19.15C19.9156 19.1703 19.9953 19.1969 20.0625 19.2125C20.1312 19.2266 20.1953 19.2484 20.2047 19.2594C20.2125 19.2703 20.2187 19.3047 20.2156 19.3375C20.2109 19.3938 20.2109 19.3953 20.0828 19.4359C19.8781 19.5031 19.789 19.5922 19.7297 19.7922L19.6969 19.9063H19.6312C19.5812 19.9063 19.5625 19.9 19.5562 19.8797Z" fill="#F7E4DF"/>
    <path d="M12.3063 19.8766C12.3 19.8688 12.2828 19.8172 12.2656 19.7625C12.2484 19.7094 12.2203 19.6406 12.2031 19.6125C12.1609 19.5453 12.0484 19.475 11.9141 19.4344C11.8547 19.4156 11.8 19.3938 11.7938 19.3844C11.7875 19.375 11.7812 19.3438 11.7812 19.3156C11.7812 19.2703 11.7891 19.2609 11.8531 19.2344C11.8922 19.2172 11.9359 19.2031 11.95 19.2031C12.0063 19.2031 12.0953 19.1688 12.1422 19.1281C12.2078 19.0734 12.2531 18.9688 12.2641 18.8438L12.2734 18.7422H12.3484H12.4219L12.475 18.8953C12.5266 19.0453 12.575 19.1203 12.6484 19.1609C12.6656 19.1703 12.7359 19.1969 12.8047 19.2188L12.9297 19.2594L12.9344 19.3234L12.9391 19.3875L12.8563 19.4156C12.7078 19.4641 12.6094 19.5188 12.5531 19.5828C12.5016 19.6438 12.4906 19.6703 12.4531 19.825C12.4375 19.8875 12.4344 19.8906 12.375 19.8906C12.3422 19.8906 12.3109 19.8844 12.3063 19.8766Z" fill="#F7E4DF"/>
    <path d="M15.6953 19.2438C15.6531 19.2328 15.5969 19.2141 15.5703 19.2031C15.5453 19.1922 15.4922 19.1781 15.4531 19.1734C15.3906 19.1656 15.3766 19.1563 15.3328 19.0891C15.2313 18.9359 15.2109 18.8609 15.2109 18.6094C15.2109 18.3875 15.2125 18.3813 15.2594 18.2797C15.3172 18.1594 15.4594 18.0063 15.5625 17.9531C15.7063 17.8797 15.7938 17.8594 15.9656 17.8594C16.0656 17.8594 16.1594 17.8688 16.2078 17.8828C16.4109 17.9422 16.5938 18.0828 16.6703 18.2359C16.7219 18.3406 16.7359 18.4531 16.6969 18.4531C16.6859 18.4531 16.6719 18.4719 16.6672 18.4969C16.5922 18.8656 16.4766 19.0641 16.2703 19.175C16.1125 19.2609 15.8766 19.2891 15.6953 19.2438Z" fill="#F7E4DF"/>
    <path d="M13.614 18.9781C13.5578 18.9266 13.5546 18.9203 13.55 18.8094C13.5453 18.6875 13.5609 18.6516 13.6359 18.6109C13.7125 18.5719 13.8765 18.5969 13.939 18.6594C13.9812 18.7016 13.9843 18.7141 13.9843 18.8188C13.9843 18.9156 13.9796 18.9359 13.95 18.9641C13.8906 19.0172 13.85 19.0313 13.7593 19.0313C13.6812 19.0313 13.6656 19.025 13.614 18.9781Z" fill="#F7E4DF"/>
    <path d="M18.15 18.8656C18.1234 18.8391 18.1141 18.6719 18.1391 18.6719C18.1469 18.6719 18.1562 18.6578 18.1609 18.6406C18.1672 18.6141 18.1828 18.6094 18.2469 18.6094C18.3406 18.6094 18.375 18.6203 18.375 18.65C18.375 18.6625 18.3828 18.6719 18.3922 18.6719C18.4187 18.6719 18.4016 18.8578 18.3734 18.8766C18.3359 18.9 18.1766 18.8938 18.15 18.8656Z" fill="#F7E4DF"/>
    <path d="M14.0734 18.3422C14.0562 18.3328 14.0344 18.3016 14.0219 18.2719C13.9953 18.2078 13.9937 18.0438 14.0187 18.0188C14.0297 18.0078 14.0844 18 14.1578 18C14.2547 18 14.2844 18.0063 14.3187 18.0328C14.3547 18.0609 14.3594 18.075 14.3594 18.1641C14.3594 18.2484 14.3531 18.2703 14.3187 18.3109C14.2828 18.3547 14.2703 18.3594 14.1906 18.3594C14.1406 18.3594 14.089 18.3516 14.0734 18.3422Z" fill="#F7E4DF"/>
    <path d="M17.7984 18.2516C17.7265 18.2312 17.6984 18.1687 17.6906 18.0187C17.6844 17.8891 17.6859 17.8781 17.7234 17.8344C17.7594 17.7922 17.7719 17.7891 17.8859 17.7844C18.0265 17.7797 18.0672 17.7953 18.1203 17.8734C18.1484 17.9156 18.1562 17.9484 18.1562 18.0312C18.1562 18.1516 18.125 18.2078 18.0375 18.2437C17.9828 18.2656 17.864 18.2703 17.7984 18.2516Z" fill="#F7E4DF"/>
    <path d="M12.0547 17.3188C12.0203 17.2828 12.0156 17.2609 12.0156 17.1688V17.0609L12.0703 17.0375C12.1469 17.0063 13.275 17.0063 13.3641 17.0375C13.4625 17.0734 13.4844 17.1031 13.4844 17.1984C13.4844 17.2672 13.4766 17.2891 13.4453 17.3203L13.4078 17.3594H12.75H12.0922L12.0547 17.3188Z" fill="#F7E4DF"/>
    <path d="M18.6359 17.3406C18.6 17.3125 18.5781 17.2438 18.5781 17.1625C18.5781 17.1094 18.5875 17.0828 18.6172 17.0547L18.6547 17.0156H19.2609C19.6281 17.0156 19.8906 17.0219 19.925 17.0313C19.9953 17.0516 20.0469 17.1125 20.0469 17.175C20.0469 17.2281 20.0078 17.3297 19.9797 17.3469C19.9688 17.3531 19.6688 17.3594 19.3109 17.3594C18.8156 17.3594 18.6563 17.3547 18.6359 17.3406Z" fill="#F7E4DF"/>
    <path d="M15.3937 16.8328C15.3875 16.8172 15.3828 16.6328 15.3828 16.4219C15.3828 15.9922 15.3984 15.9062 15.5094 15.6844C15.639 15.4266 15.8 15.2641 16.1015 15.0859C16.4922 14.8562 16.6515 14.6906 16.7344 14.4234C16.7734 14.2984 16.7734 14.2094 16.7344 14.0562C16.6937 13.8937 16.6359 13.7937 16.5156 13.6703C16.3515 13.5031 16.1 13.4016 15.8625 13.4047C15.764 13.4062 15.575 13.4609 15.4297 13.5297C15.3609 13.5625 15.2906 13.5937 15.2734 13.6C15.2203 13.6172 15.0437 13.7703 14.9812 13.8516C14.8859 13.9781 14.8172 14.0828 14.8047 14.1219C14.7953 14.1531 14.8 14.1562 14.8437 14.1562H14.8937L14.8828 14.2703C14.8594 14.5047 14.8578 14.5078 14.7906 14.5125L14.7297 14.5172L14.739 14.4422C14.7453 14.4016 14.7531 14.3391 14.7578 14.3047C14.7656 14.2453 14.764 14.2453 14.75 14.2891C14.7406 14.3156 14.7281 14.3781 14.7219 14.4297L14.7109 14.5234L14.4094 14.5281C14.1297 14.5312 14.1078 14.5344 14.0906 14.5625C14.0734 14.5891 14.0531 14.5937 13.9562 14.5937C13.8172 14.5937 13.7875 14.5797 13.7656 14.5031C13.725 14.3547 13.7594 13.9109 13.8297 13.6906C14 13.1547 14.3734 12.7391 14.914 12.4766C15.614 12.1391 16.4344 12.1625 17.0703 12.5391C17.5 12.7922 17.8344 13.2141 17.9437 13.6406C17.9719 13.7469 17.9531 14.2266 17.9172 14.3984C17.7969 14.95 17.5484 15.2969 16.9765 15.7109C16.6969 15.9141 16.6047 16.0109 16.514 16.1937C16.4344 16.3594 16.3984 16.4859 16.3828 16.6578L16.3734 16.7609L16.1609 16.7703C16.0437 16.7766 15.889 16.7812 15.8172 16.7812C15.689 16.7812 15.6875 16.7812 15.6875 16.8203C15.6875 16.8594 15.6859 16.8594 15.5469 16.8594C15.4265 16.8594 15.4031 16.8547 15.3937 16.8328Z" fill="#F7E4DF"/>
    <path d="M19.8766 15.8234C19.8172 15.7953 19.7781 15.7125 19.7703 15.6047C19.7625 15.5156 19.7656 15.5031 19.8031 15.4563C19.8734 15.3734 20.0047 15.3531 20.1109 15.4063C20.1938 15.45 20.2344 15.5188 20.2344 15.6172C20.2344 15.7141 20.2109 15.7625 20.1422 15.8078C20.0813 15.8484 19.9422 15.8578 19.8766 15.8234Z" fill="#F7E4DF"/>
    <path d="M11.7812 15.8078C11.7156 15.775 11.6844 15.6953 11.6906 15.5719C11.6953 15.4781 11.7015 15.4609 11.739 15.4281C11.775 15.3984 11.8 15.3906 11.875 15.3906C11.9594 15.3906 11.9687 15.3938 12.014 15.4453C12.0734 15.5141 12.0844 15.5563 12.0719 15.6688C12.0578 15.7938 12.0203 15.8281 11.9078 15.8281C11.8594 15.8281 11.8031 15.8188 11.7812 15.8078Z" fill="#F7E4DF"/>
    <path d="M11.789 15.2656C11.714 15.2359 11.7109 15.2203 11.7109 14.8406C11.7109 14.4125 11.7015 14.4328 11.8937 14.4406C11.9656 14.4438 12.0218 14.4531 12.0343 14.4656C12.0562 14.4875 12.0734 15.0313 12.0546 15.1531C12.0406 15.2469 11.9984 15.2813 11.9 15.2797C11.8562 15.2797 11.8062 15.2734 11.789 15.2656Z" fill="#F7E4DF"/>
    <path d="M19.8453 14.7547C19.7562 14.6641 19.7421 14.4844 19.8203 14.4078C19.8546 14.3719 19.8718 14.3672 19.9656 14.3672C20.1546 14.3688 20.2328 14.45 20.2125 14.625C20.1968 14.7531 20.1578 14.7875 20.0078 14.7938C19.8968 14.8 19.889 14.7984 19.8453 14.7547Z" fill="#F7E4DF"/>
    <path d="M19.7844 13.3719C19.7734 13.3609 19.7656 13.3453 19.7656 13.3344C19.7656 13.2969 19.7 13.1641 19.6469 13.0938C19.6172 13.0547 19.5594 13 19.5172 12.9703L19.4406 12.9188L19.3313 12.9359C19.2078 12.9547 18.7047 12.9594 18.6781 12.9406C18.6438 12.9188 18.625 12.8594 18.625 12.775C18.625 12.7016 18.6297 12.6859 18.6609 12.6688C18.7078 12.6422 19.3281 12.6391 19.3609 12.6672C19.3875 12.6891 19.4734 12.6625 19.5563 12.6078C19.6281 12.5594 19.7281 12.4078 19.7594 12.3016L19.7844 12.2172L19.8469 12.2219C19.9063 12.2266 19.9125 12.2313 19.9297 12.2891C19.9547 12.375 20.0266 12.5156 20.0672 12.5594C20.1094 12.6063 20.1922 12.6484 20.3438 12.7031L20.4609 12.7453V12.8063V12.8672L20.3188 12.9156C20.1422 12.975 20.0703 13.0188 20.025 13.0922C19.9875 13.1516 19.9219 13.3266 19.9219 13.3672C19.9219 13.3969 19.8125 13.4 19.7844 13.3719Z" fill="#F7E4DF"/>
    <path d="M12.1734 13.3156C12.15 13.2313 12.0859 13.1078 12.0406 13.0594C11.9828 13 11.8781 12.9422 11.8047 12.9297C11.7703 12.9234 11.7188 12.9125 11.6922 12.9031C11.6438 12.8891 11.6406 12.8828 11.6406 12.8188C11.6406 12.7406 11.6641 12.7188 11.7813 12.6859C11.8906 12.6547 12.0281 12.5672 12.0703 12.5031C12.0906 12.4719 12.1219 12.3984 12.1406 12.3406L12.175 12.2344H12.2359C12.2953 12.2344 12.2969 12.2359 12.3484 12.3484C12.4016 12.4594 12.5063 12.5953 12.5656 12.6266C12.5844 12.6359 12.7359 12.6453 12.9313 12.6484C13.3469 12.6563 13.3594 12.6609 13.3594 12.7953C13.3594 12.9438 13.3578 12.9438 12.9547 12.9531C12.7391 12.9578 12.6063 12.9672 12.5859 12.9797C12.4969 13.0297 12.3672 13.2109 12.3219 13.3484C12.3156 13.3672 12.2969 13.375 12.2516 13.375C12.1922 13.375 12.1875 13.3719 12.1734 13.3156Z" fill="#F7E4DF"/>
    <path d="M10.4265 11.6922C10.4312 11.4266 10.4343 11.1375 10.4328 11.0469C10.4312 10.9563 10.4296 10.7313 10.4296 10.5469V10.2109L10.5328 10.2125C10.6468 10.2156 10.7218 10.2453 10.7531 10.3016C10.7734 10.3375 10.7796 10.8469 10.7671 11.6797C10.7625 12.0938 10.7593 12.1094 10.664 12.15C10.6343 12.1625 10.5671 12.1719 10.514 12.1719H10.4187L10.4265 11.6922Z" fill="#F7E4DF"/>
    <path d="M13.9844 11.7391C13.9453 11.7047 13.9328 11.6781 13.9266 11.6219C13.9062 11.4469 13.9672 11.375 14.1344 11.375C14.2187 11.375 14.2328 11.3797 14.2719 11.4203C14.3141 11.4641 14.3156 11.4734 14.3094 11.5766C14.3016 11.7375 14.2703 11.7719 14.1359 11.7781C14.0422 11.7828 14.0297 11.7781 13.9844 11.7391Z" fill="#F7E4DF"/>
    <path d="M17.7672 11.7594C17.7094 11.7266 17.6891 11.6734 17.6875 11.5531C17.6875 11.4016 17.7078 11.3828 17.8781 11.3844C17.9969 11.3859 18.0047 11.3891 18.0406 11.4312C18.1063 11.5125 18.0844 11.7062 18.0016 11.7547C17.9469 11.7859 17.8203 11.7891 17.7672 11.7594Z" fill="#F7E4DF"/>
    <path d="M12.2656 11.1266C12.2656 11.1188 12.25 11.1094 12.2313 11.1063C12.2078 11.1031 12.1938 11.0891 12.1906 11.0672C12.1875 11.0469 12.1766 11.0313 12.1641 11.0313C12.1344 11.0313 12.1016 10.9328 12.0781 10.7703C12.0625 10.6719 12.05 10.625 12.0359 10.625C12.025 10.625 12.0156 10.6141 12.0156 10.6016C12.0156 10.5891 12.0094 10.5781 12 10.5781C11.9922 10.5781 11.9844 10.5578 11.9844 10.5313C11.9844 10.4922 11.9781 10.4844 11.9453 10.4844C11.9031 10.4844 11.8281 10.4547 11.8281 10.4359C11.8281 10.4297 11.8047 10.4219 11.7781 10.4172C11.6531 10.3953 11.625 10.3859 11.625 10.3656C11.625 10.3531 11.6094 10.3438 11.5844 10.3438C11.5156 10.3438 11.4844 10.3172 11.4844 10.2578C11.4844 10.2063 11.4875 10.2031 11.5359 10.2031C11.5859 10.2047 11.6406 10.2328 11.6406 10.2609C11.6406 10.2688 11.6875 10.2828 11.7453 10.2922C11.8031 10.3031 11.8531 10.3188 11.8563 10.3281C11.8594 10.3359 11.875 10.3438 11.8906 10.3438C11.9531 10.3438 12 10.3781 12 10.425C12 10.4625 12.0063 10.4688 12.0469 10.4688C12.0781 10.4688 12.0938 10.4766 12.0938 10.4922C12.0938 10.5047 12.1016 10.5156 12.1094 10.5156C12.1188 10.5156 12.125 10.5406 12.125 10.5703C12.125 10.6078 12.1328 10.625 12.1469 10.625C12.1625 10.625 12.1734 10.6484 12.1781 10.7C12.1844 10.7406 12.1984 10.8047 12.2125 10.8438C12.2266 10.8828 12.2406 10.9297 12.2453 10.95C12.25 10.9688 12.2625 10.9844 12.275 10.9844C12.2859 10.9844 12.3031 10.9969 12.3125 11.0125C12.325 11.0313 12.3328 11.0328 12.3375 11.0203C12.3422 11.0094 12.3641 11 12.3844 11C12.4141 11 12.4219 10.9922 12.4219 10.9609C12.4219 10.9266 12.4281 10.9219 12.4766 10.9219C12.5281 10.9219 12.5313 10.925 12.5313 10.9766C12.5313 11.025 12.5266 11.0313 12.4922 11.0313C12.4609 11.0313 12.4531 11.0391 12.4531 11.0703C12.4531 11.0953 12.4438 11.1094 12.4297 11.1094C12.4172 11.1094 12.4063 11.1172 12.4063 11.125C12.4063 11.1344 12.375 11.1406 12.3359 11.1406C12.2969 11.1406 12.2656 11.1344 12.2656 11.1266Z" fill="#F7E4DF"/>
    <path d="M15.8859 10.9719C15.8172 10.8219 15.7609 10.7641 15.6141 10.6938C15.4891 10.6359 15.4688 10.6094 15.4688 10.5188C15.4688 10.4578 15.4703 10.4563 15.5594 10.4203C15.7531 10.3438 15.8125 10.2859 15.8672 10.1266C15.9141 9.98594 15.9281 9.96875 15.9922 9.96875C16.0563 9.96875 16.0781 9.99375 16.1531 10.1563C16.2281 10.3172 16.2859 10.3734 16.4344 10.4297L16.5469 10.4719V10.5391C16.5469 10.6156 16.5109 10.6563 16.4109 10.6891C16.2719 10.7344 16.2141 10.7938 16.125 10.9891L16.075 11.0938H16.0078H15.9422L15.8859 10.9719Z" fill="#F7E4DF"/>
    <path d="M18.2875 11.0781C18.2031 11.0516 18.1828 11.0125 18.175 10.8703C18.1672 10.7047 18.1765 10.6953 18.3468 10.6953C18.464 10.6953 18.4734 10.6984 18.5093 10.7391C18.5422 10.7766 18.5468 10.7984 18.5468 10.8969C18.5468 11.0437 18.5234 11.0766 18.414 11.0859C18.3718 11.0891 18.314 11.0859 18.2875 11.0781Z" fill="#F7E4DF"/>
    <path d="M13.6156 11.0453C13.5609 11.0188 13.5 10.9078 13.5 10.8359C13.5 10.7188 13.5797 10.6562 13.7297 10.6562C13.8719 10.6578 13.9375 10.7313 13.9375 10.8938C13.9375 10.9609 13.9313 10.9781 13.8891 11.0172C13.8453 11.0578 13.8297 11.0625 13.7438 11.0609C13.6922 11.0609 13.6344 11.0531 13.6156 11.0453Z" fill="#F7E4DF"/>
    <path d="M19.7703 10.9141C19.7094 10.8703 19.6797 10.7594 19.6813 10.5766L19.6844 10.4125L19.5828 10.425C19.5203 10.4344 19.4313 10.4328 19.3547 10.4234C19.1922 10.4047 19.1719 10.3828 19.1719 10.2344C19.1719 10.0766 19.1828 10.0703 19.4531 10.0703C19.6625 10.0703 19.6703 10.0719 19.7125 10.1094L19.7547 10.1484L19.7266 10.1063C19.7047 10.0688 19.7016 10.0328 19.7063 9.84688C19.7094 9.69219 19.7172 9.62188 19.7328 9.60469C19.7484 9.58438 19.7797 9.57812 19.8609 9.57812C20.025 9.57812 20.0469 9.61406 20.0469 9.8875V10.0703H20.2828H20.5188L20.5563 10.1141C20.5875 10.15 20.5938 10.175 20.5938 10.2563C20.5938 10.4047 20.5797 10.4141 20.3219 10.4141C20.2094 10.4141 20.1 10.4094 20.0781 10.4031L20.0391 10.3922L20.0438 10.5766C20.05 10.8141 20.0391 10.8547 19.9609 10.9C19.8875 10.9422 19.8172 10.9469 19.7703 10.9141ZM19.8828 10.2656C19.9188 10.2656 19.9547 10.2734 19.9656 10.2844C19.9797 10.2984 19.9844 10.2906 19.9844 10.2453C19.9844 10.1922 19.9813 10.1875 19.9547 10.2031C19.9109 10.225 19.8484 10.2219 19.8078 10.1953C19.7734 10.1734 19.7734 10.1734 19.7781 10.2359C19.7828 10.2813 19.7891 10.2953 19.8016 10.2828C19.8109 10.2734 19.8469 10.2656 19.8828 10.2656Z" fill="#F7E4DF"/>
    <path d="M12.4578 10.75C12.4672 10.6672 12.5156 10.5375 12.5469 10.5156C12.5516 10.5109 12.5609 10.4953 12.5672 10.4813C12.5719 10.4656 12.5875 10.4531 12.6016 10.4531C12.6141 10.4531 12.625 10.4469 12.625 10.4375C12.625 10.4297 12.6359 10.4219 12.6484 10.4219C12.6609 10.4219 12.6719 10.4156 12.6719 10.4094C12.6719 10.3875 12.8109 10.3281 12.8594 10.3281C12.9016 10.3281 12.9062 10.3328 12.9062 10.3797C12.9062 10.4281 12.8984 10.4359 12.825 10.4703C12.7797 10.4906 12.7406 10.5125 12.7375 10.5203C12.7344 10.5266 12.725 10.5313 12.7172 10.5313C12.675 10.5313 12.5625 10.7313 12.5625 10.8047C12.5625 10.8391 12.5562 10.8438 12.5062 10.8438H12.4484L12.4578 10.75Z" fill="#F7E4DF"/>
    <path d="M12.2093 10.3203C12.1828 10.3078 12.1422 10.2766 12.1187 10.25C12.0375 10.1531 12.0843 9.95156 12.2031 9.88906C12.2765 9.84844 12.414 9.85 12.4797 9.89062C12.55 9.93281 12.5765 9.98125 12.5875 10.0875C12.5937 10.1641 12.5906 10.1891 12.5625 10.2312C12.5031 10.3281 12.3265 10.3719 12.2093 10.3203Z" fill="#F7E4DF"/>
    <path d="M13.0469 10.2891C13.0469 10.2406 13.0516 10.2344 13.0859 10.2344C13.1125 10.2344 13.125 10.2266 13.125 10.2078C13.1234 10.1766 13.0563 10.0938 13.0313 10.0938C13.0234 10.0938 13.0156 10.0875 13.0156 10.0781C13.0156 10.0703 13.0047 10.0625 12.9922 10.0625C12.9531 10.0625 12.8906 10.0266 12.8906 10.0047C12.8906 9.99375 12.8766 9.98438 12.8594 9.98438C12.8422 9.98438 12.8281 9.97813 12.8281 9.97188C12.8281 9.96563 12.8031 9.95 12.7734 9.93906C12.7438 9.92813 12.7188 9.91406 12.7188 9.90781C12.7188 9.9 12.7047 9.89063 12.6875 9.88594C12.6656 9.88125 12.6563 9.86406 12.6563 9.8375C12.6563 9.80781 12.6484 9.79688 12.625 9.79688C12.6078 9.79688 12.5938 9.78906 12.5938 9.77969C12.5938 9.77031 12.5828 9.75313 12.5703 9.74063C12.5578 9.72656 12.5469 9.69531 12.5469 9.67031C12.5469 9.64063 12.5391 9.625 12.5234 9.625C12.5078 9.625 12.5 9.60781 12.5 9.57031C12.5 9.51875 12.5031 9.51562 12.5547 9.51562C12.6047 9.51562 12.6094 9.51875 12.6094 9.5625C12.6094 9.59375 12.6172 9.60938 12.6328 9.60938C12.6453 9.60938 12.6594 9.62656 12.6656 9.64844C12.6703 9.67031 12.6813 9.6875 12.6891 9.6875C12.6969 9.6875 12.7031 9.70469 12.7031 9.72656C12.7031 9.75469 12.7109 9.76563 12.7344 9.76563C12.75 9.76563 12.7703 9.775 12.7766 9.78594C12.7828 9.79688 12.8125 9.81563 12.8406 9.82656C12.8672 9.83906 12.8906 9.85313 12.8906 9.86094C12.8906 9.86875 12.9016 9.875 12.9141 9.875C12.9266 9.875 12.9375 9.88438 12.9375 9.89688C12.9375 9.90781 12.9578 9.92188 12.9828 9.92656C13.0078 9.93125 13.0391 9.94688 13.0516 9.96094C13.0656 9.97344 13.0875 9.98438 13.1 9.98438C13.1141 9.98438 13.125 9.99219 13.125 10C13.125 10.0094 13.1344 10.0156 13.1469 10.0156C13.1938 10.0156 13.2344 10.0938 13.2344 10.1813C13.2344 10.2609 13.2328 10.2656 13.1953 10.2656C13.1641 10.2656 13.1563 10.2734 13.1563 10.3047C13.1563 10.3391 13.15 10.3438 13.1016 10.3438C13.05 10.3438 13.0469 10.3406 13.0469 10.2891Z" fill="#F7E4DF"/>
    <path d="M11.4531 10.0984C11.4531 10.0156 11.4656 10.0031 11.5859 9.95937C11.7328 9.90625 11.8906 9.81094 11.9609 9.73281C12.0375 9.64844 12.0719 9.56562 12.1109 9.37969C12.1469 9.20781 12.1688 9.17969 12.2734 9.16406C12.4594 9.13437 12.5234 9.175 12.5406 9.33281L12.5516 9.42187H12.4938C12.4453 9.42187 12.4375 9.41719 12.4375 9.38437C12.4375 9.34844 12.3844 9.26562 12.3594 9.26562C12.3531 9.26562 12.3313 9.27812 12.3109 9.29531C12.2828 9.31719 12.2734 9.34531 12.2641 9.42812C12.2391 9.68125 12.0297 9.93594 11.7688 10.0312C11.6563 10.0719 11.6172 10.0922 11.5797 10.1281C11.5625 10.1437 11.5266 10.1562 11.5 10.1562C11.4563 10.1562 11.4531 10.1531 11.4531 10.0984Z" fill="#F7E4DF"/>
    <path d="M10.5516 9.7C10.5313 9.69063 10.5156 9.67031 10.5156 9.65313C10.5156 9.63594 10.5047 9.625 10.4844 9.625C10.4578 9.625 10.4531 9.61406 10.4531 9.55469C10.4531 9.5125 10.4609 9.47969 10.4734 9.47656C10.4859 9.47031 10.4906 9.44375 10.4875 9.39844C10.4813 9.33594 10.4844 9.32813 10.5141 9.32813C10.5328 9.32813 10.5469 9.31875 10.5469 9.30625C10.5469 9.29375 10.5563 9.27969 10.5672 9.27656C10.5828 9.27031 10.5828 9.26719 10.5672 9.26719C10.5391 9.26563 10.5422 9.17813 10.5719 9.13281C10.5859 9.1125 10.6188 9.05 10.6469 8.99688C10.6828 8.92656 10.7063 8.89688 10.7313 8.89375C10.7563 8.88906 10.7656 8.87813 10.7656 8.85C10.7656 8.79688 10.8 8.76563 10.8578 8.76563C10.8969 8.76563 10.9063 8.77188 10.9078 8.80156C10.9094 8.83906 10.9125 8.83438 10.9453 8.73906C10.9516 8.71875 10.9656 8.70313 10.975 8.70313C10.9859 8.70313 10.9906 8.68125 10.9875 8.64063C10.9844 8.60625 10.9875 8.57813 10.9953 8.57813C11.0047 8.57813 11.0313 8.56094 11.0563 8.53906C11.1781 8.43125 11.425 8.30781 11.6375 8.24688C11.7547 8.2125 11.7828 8.2125 12.7016 8.20625L13.6438 8.20156L13.6328 8.30781C13.6281 8.36563 13.6141 8.42344 13.6031 8.43438C13.5734 8.46563 13.2375 8.48438 12.6641 8.48438C12.0891 8.48438 12.0688 8.4875 11.7422 8.57969C11.5406 8.6375 11.5266 8.64375 11.3828 8.75C11.1563 8.91563 10.9828 9.1125 10.8828 9.3125C10.875 9.32969 10.8625 9.34375 10.8563 9.34375C10.8484 9.34375 10.8438 9.36094 10.8438 9.38125C10.8438 9.40156 10.8328 9.42656 10.8203 9.4375C10.8047 9.45156 10.7969 9.4875 10.7969 9.55313C10.7969 9.63438 10.7906 9.65625 10.7609 9.68438C10.7203 9.72188 10.6141 9.72969 10.5516 9.7Z" fill="#F7E4DF"/>
    <path d="M20.1062 8.90781C20.0625 8.86875 20.0562 8.85312 20.05 8.76406C20.0437 8.67187 20.0468 8.65937 20.0843 8.62344C20.1422 8.56406 20.2765 8.54219 20.3484 8.57969C20.4156 8.61406 20.4375 8.65781 20.4375 8.76094C20.4375 8.84219 20.4312 8.86406 20.3968 8.90469C20.3593 8.95 20.3484 8.95312 20.2562 8.95312C20.1687 8.95312 20.15 8.94844 20.1062 8.90781Z" fill="#F7E4DF"/>
    <path d="M15.1609 7.80156L12.2344 7.79687V7.74219C12.2344 7.7125 12.2391 7.6875 12.2469 7.6875C12.2531 7.6875 12.2969 7.65625 12.3438 7.61719C12.425 7.55 12.7172 7.4125 13.125 7.24531C13.5203 7.08594 14.2469 6.89219 14.6641 6.83594C14.7078 6.82969 14.8234 6.8125 14.9219 6.79531C15.1922 6.75156 15.5141 6.73438 16.1016 6.73438C16.5313 6.73438 16.6828 6.74062 16.8906 6.76562C17.4719 6.83437 17.5063 6.83906 17.9453 6.94531C18.5734 7.09687 19.0922 7.29219 19.5984 7.56562C19.7078 7.625 19.8188 7.67656 19.8438 7.68281C19.8844 7.69062 19.8906 7.69844 19.8906 7.74375V7.79687H19.1141C18.6859 7.79687 18.2797 7.8 18.2109 7.80156C18.1422 7.80469 16.7688 7.80469 15.1609 7.80156Z" fill="#F7E4DF"/>
    <path d="M0 16V0H16H32V16V32H16H0V16ZM9.41406 24.5531C9.4625 24.5219 9.4625 24.4984 9.41563 24.4531C9.37031 24.4125 9.34063 24.4188 9.30313 24.4766C9.27813 24.5141 9.27813 24.5188 9.30469 24.5469C9.33906 24.5844 9.36406 24.5859 9.41406 24.5531ZM22.7109 24.5469C22.7438 24.5109 22.7344 24.4797 22.6797 24.4438C22.6484 24.4234 22.6359 24.4219 22.6172 24.4375C22.5797 24.4688 22.5734 24.5156 22.6031 24.5484C22.6375 24.5859 22.675 24.5859 22.7109 24.5469ZM12.8625 24.5297C12.8766 24.5156 12.8906 24.4844 12.8938 24.4594L12.8984 24.4141L13.0703 24.4109C13.1656 24.4078 13.3906 24.4031 13.5703 24.3969C13.8641 24.3891 13.9031 24.3906 13.95 24.4156C13.9875 24.4359 14 24.4531 14 24.4875V24.5313H14.1219C14.2625 24.5313 14.3281 24.5078 14.3281 24.4594C14.3281 24.4156 14.3547 24.4063 14.4781 24.4063C14.5609 24.4063 14.5813 24.4109 14.5969 24.4375C14.6078 24.4547 14.6234 24.4688 14.6328 24.4688C14.6563 24.4688 14.7719 24.5313 14.7828 24.5516C14.7906 24.5609 14.8625 24.5641 14.9813 24.5594C15.1484 24.5516 15.1797 24.5469 15.2531 24.5078C15.2984 24.4844 15.3422 24.4547 15.3484 24.4438C15.3578 24.4266 15.4031 24.4219 15.5359 24.4219C15.7188 24.4219 15.7813 24.4313 15.7813 24.4563C15.7813 24.4641 15.7938 24.4828 15.8078 24.4969C15.8484 24.5375 16.1297 24.5438 16.2391 24.5063C16.2828 24.4906 16.3313 24.4656 16.3469 24.4516C16.3844 24.4141 16.6453 24.4016 17.1484 24.4141C17.6109 24.425 17.6406 24.4281 17.6406 24.4609C17.6406 24.4781 17.6609 24.4844 17.7188 24.4844C17.7766 24.4844 17.7969 24.4781 17.7969 24.4625C17.7969 24.4172 17.95 24.3906 18.2063 24.3906C18.4828 24.3906 18.5078 24.3984 18.4969 24.4875L18.4906 24.5422L18.7141 24.5516C18.8531 24.5578 18.9547 24.5547 18.9875 24.5453C19.1016 24.5094 19.1281 24.4938 19.1422 24.4578C19.1547 24.425 19.1656 24.4219 19.2563 24.4219C19.3234 24.4219 19.3625 24.4281 19.3703 24.4422C19.3766 24.4547 19.4063 24.4766 19.4344 24.4922C19.4609 24.5094 19.4844 24.5297 19.4844 24.5391C19.4844 24.55 19.7609 24.5547 20.3797 24.5531C20.8703 24.5516 21.2781 24.55 21.2859 24.5484C21.2922 24.5484 21.3047 24.5297 21.3125 24.5094C21.325 24.4734 21.3344 24.4719 21.4828 24.4656C21.6313 24.4609 21.6406 24.4578 21.6859 24.4156C21.75 24.3547 21.7484 24.3078 21.6797 24.2391L21.6234 24.1828L21.2344 24.1906L20.8438 24.1984V24.1422C20.8453 24.0891 20.8516 24.0813 20.9969 23.9844C21.2625 23.8063 21.5578 23.4938 21.7078 23.2328C21.7781 23.1094 21.8734 22.8781 21.9063 22.7531C21.9766 22.4828 21.9844 22.3891 21.9844 21.8422C21.9844 21.3891 21.9875 21.3141 22.0078 21.3063C22.0234 21.3 22.0313 21.3078 22.0313 21.3281C22.0313 21.3453 22.0359 21.3594 22.0406 21.3594C22.0672 21.3594 22.5734 20.7828 22.7359 20.5703C22.7672 20.5281 22.8344 20.4406 22.8828 20.3766C23.1188 20.0734 23.4344 19.5563 23.6406 19.1391C23.8438 18.7281 23.9766 18.4094 24.0984 18.0453C24.2781 17.5063 24.3719 17.0891 24.4641 16.4141C24.5047 16.1156 24.5063 16.0719 24.5063 15.4219C24.5063 14.7313 24.5031 14.6672 24.4375 14.1797C24.2781 13.0188 23.8875 11.9125 23.2813 10.9063C23.0984 10.6016 23.0609 10.5469 22.7844 10.1641C22.4016 9.63594 22.1156 9.29531 22.0094 9.23906L21.9641 9.21563L21.975 9.275C22.0016 9.42344 22.0313 9.62031 22.0313 9.66094C22.0313 9.69219 22.0234 9.70313 22.0016 9.70313C21.9766 9.70313 21.9719 9.68594 21.9625 9.57813C21.9438 9.34844 21.8359 9.04844 21.6938 8.82656C21.4797 8.49063 21.2172 8.24531 20.8672 8.05156C20.5875 7.89688 20.3703 7.83438 20.0359 7.81094C19.9156 7.80313 19.7844 7.78594 19.7469 7.775L19.6797 7.75313L19.7656 7.75L19.8516 7.74844L19.7891 7.72813C19.7547 7.71719 19.6453 7.66406 19.5469 7.60938C19.0594 7.34375 18.5234 7.14375 17.8984 6.99219C17.4594 6.88594 17.425 6.88125 16.8438 6.8125C16.3813 6.75781 15.3906 6.77344 14.9688 6.84219C14.8703 6.85938 14.7547 6.87656 14.7109 6.88281C14.2938 6.93906 13.5672 7.13281 13.1719 7.29219C12.8219 7.43438 12.4672 7.6 12.4125 7.64688C12.3781 7.675 12.3344 7.70938 12.3125 7.72344C12.275 7.75 12.2766 7.75 12.3797 7.75C12.4719 7.75 12.4844 7.75313 12.4844 7.77969C12.4844 7.80781 12.4641 7.80938 12.1297 7.81719C11.8391 7.82344 11.7531 7.82969 11.6609 7.85625C10.9391 8.05625 10.4219 8.51563 10.15 9.19531C10.0844 9.3625 10.0531 9.49375 10.0375 9.66875C10.0281 9.77969 10.0234 9.79688 9.99844 9.79688C9.97813 9.79688 9.96875 9.78594 9.96875 9.75938C9.96875 9.69688 10.0141 9.37188 10.0313 9.31406C10.0391 9.28438 10.0422 9.25625 10.0391 9.25156C10.025 9.23906 9.80313 9.46563 9.66563 9.63281C9.07188 10.3578 8.55156 11.2047 8.20313 12.0156C8.04063 12.3953 7.99219 12.5266 7.89844 12.8344C7.69531 13.5125 7.625 13.8906 7.53125 14.8438C7.50469 15.125 7.51094 15.7359 7.54688 16.0859C7.61406 16.7469 7.64844 16.9609 7.75 17.3938C7.9 18.0234 8.18594 18.7672 8.50781 19.3594C8.81875 19.9328 9.32656 20.6469 9.69531 21.0313C9.77344 21.1125 9.86719 21.2141 9.90313 21.2563L9.96875 21.3328V21.2813V21.2313L9.99844 21.2672C10.0281 21.3031 10.0281 21.325 10.0203 21.6953C10.0109 22.1547 10.0313 22.475 10.0844 22.6891C10.2172 23.2188 10.5391 23.6656 11.0359 24.0109C11.0984 24.0547 11.1094 24.0688 11.1094 24.1141V24.1672L10.7625 24.1766C10.3859 24.1875 10.3656 24.1922 10.3141 24.2844C10.2953 24.3172 10.2953 24.3281 10.3141 24.3672C10.3578 24.4547 10.4063 24.475 10.5906 24.4813C10.7109 24.4859 10.7656 24.4938 10.7844 24.5109C10.7984 24.525 10.8328 24.5391 10.8594 24.5453C10.8859 24.55 11.3422 24.5547 11.8734 24.5547C12.7359 24.5547 12.8406 24.5516 12.8625 24.5297Z" fill="#FB8D87"/>
    <path d="M12.6328 22.2328C12.4766 22.1844 12.3547 22.0781 12.2703 21.9187C12.2313 21.8437 12.2266 21.8219 12.2266 21.6641C12.2266 21.5203 12.2328 21.4766 12.2641 21.3937C12.3031 21.2922 12.4219 21.1406 12.4625 21.1406C12.475 21.1406 12.4844 21.1344 12.4844 21.125C12.4844 21.1172 12.5094 21.1094 12.5391 21.1094C12.6047 21.1094 12.6094 21.1266 12.5531 21.1578C12.5063 21.1828 12.3594 21.3375 12.3594 21.3625C12.3594 21.3719 12.3906 21.3516 12.4266 21.3172C12.4984 21.25 12.5391 21.2328 12.7109 21.1937C12.8078 21.1719 13.1797 21.1687 15.9609 21.1625C17.6891 21.1594 19.1453 21.1516 19.2 21.1469C19.2672 21.1406 19.2969 21.1312 19.2969 21.1172C19.2969 21.0859 19.2828 21.0812 19.1828 21.075C19.1078 21.0719 19.0938 21.0656 19.0938 21.0406C19.0938 21.0141 19.1031 21.0125 19.2094 21.0219C19.4859 21.0469 19.6344 21.1375 19.7469 21.35C19.7859 21.425 19.7891 21.4422 19.7891 21.6406C19.7891 21.8359 19.7859 21.8578 19.7484 21.9391C19.6688 22.1078 19.5359 22.2141 19.3594 22.2484C19.2984 22.2594 18.2922 22.2641 15.9953 22.2625C13 22.2594 12.7094 22.2562 12.6328 22.2328ZM13.3672 22.0859C13.4172 22.0359 13.4172 21.9687 13.3672 21.9094C13.3219 21.8547 13.3188 21.825 13.3531 21.7953C13.3734 21.7781 13.3766 21.75 13.3719 21.6406C13.3672 21.5219 13.3609 21.4984 13.3172 21.4359C13.2594 21.3516 13.1703 21.2703 13.1109 21.2469C13.0484 21.2234 12.8875 21.2266 12.8344 21.2547C12.7344 21.3078 12.6344 21.4578 12.6031 21.6047C12.5875 21.6703 12.6172 21.7719 12.6766 21.8656C12.75 21.9812 12.7906 22 12.9766 22H13.1344L13.2172 22.0625C13.2625 22.0969 13.3063 22.125 13.3141 22.125C13.3234 22.125 13.3469 22.1078 13.3672 22.0859ZM14.1922 21.9359C14.2172 21.9219 14.2188 21.8984 14.2156 21.6984L14.2109 21.4766L14.1266 21.4719C14.0703 21.4687 14.0375 21.4734 14.0281 21.4875C14.0141 21.5078 14.0281 21.9328 14.0422 21.9578C14.0516 21.9734 14.1484 21.9578 14.1922 21.9359ZM13.8047 21.8406C13.8141 21.8328 13.8188 21.7578 13.8172 21.6672C13.8125 21.4641 13.7906 21.4422 13.6344 21.4859L13.5734 21.5031L13.5828 21.6531C13.5906 21.8219 13.6 21.8547 13.6375 21.8641C13.675 21.8734 13.7859 21.8578 13.8047 21.8406ZM14.6406 21.85C14.7078 21.8359 14.7984 21.7391 14.8578 21.6172C14.9297 21.4734 14.9266 21.4687 14.7938 21.4687C14.6563 21.4687 14.4844 21.4969 14.475 21.5219C14.4578 21.5687 14.4438 21.8219 14.4578 21.8406C14.4734 21.8609 14.5594 21.8656 14.6406 21.85Z" fill="#FB8D87"/>
    <path d="M12.8469 21.7297C12.8062 21.6875 12.8031 21.6172 12.8359 21.5391C12.889 21.4078 13.0828 21.4484 13.1406 21.6C13.1625 21.6594 13.1515 21.6875 13.1062 21.6875C13.0859 21.6875 13.0422 21.7047 13.0078 21.7266C12.9297 21.775 12.889 21.775 12.8469 21.7297Z" fill="#FB8D87"/>
    <path d="M21.9844 21.0703C21.9844 20.9547 21.9891 20.9219 22.0063 20.9219C22.0328 20.9219 22.0469 20.9703 22.0469 21.0703C22.0469 21.1703 22.0328 21.2188 22.0063 21.2188C21.9891 21.2188 21.9844 21.1859 21.9844 21.0703Z" fill="#FB8D87"/>
    <path d="M12.8281 21.0469C12.8281 21.0203 12.8391 21.0156 12.8906 21.0156C12.9609 21.0156 12.9797 21.0516 12.9188 21.0688C12.8531 21.0859 12.8281 21.0797 12.8281 21.0469Z" fill="#FB8D87"/>
    <path d="M9.96875 20.6172C9.96875 20.4797 9.97031 20.4688 10 20.4688C10.0297 20.4688 10.0313 20.4797 10.0313 20.6172C10.0313 20.7547 10.0297 20.7656 10 20.7656C9.97031 20.7656 9.96875 20.7547 9.96875 20.6172Z" fill="#FB8D87"/>
    <path d="M9.96875 19.3203C9.96875 18.3078 9.96875 18.2969 10 18.2969C10.0313 18.2969 10.0313 18.3078 10.0313 19.3203C10.0313 20.3328 10.0313 20.3438 10 20.3438C9.96875 20.3438 9.96875 20.3328 9.96875 19.3203Z" fill="#FB8D87"/>
    <path d="M21.9844 19.8984C21.9844 19.8406 22.0219 19.8203 22.0344 19.8719C22.0438 19.9141 22.0313 19.9531 22.0063 19.9531C21.9922 19.9531 21.9844 19.9359 21.9844 19.8984Z" fill="#FB8D87"/>
    <path d="M22.575 18.4453C22.4797 18.3922 22.4859 18.225 22.5859 18.1766C22.6875 18.1281 22.7812 18.1891 22.7812 18.3031C22.7812 18.425 22.6734 18.5 22.575 18.4453Z" fill="#FB8D87"/>
    <path d="M22.9234 16.9969C22.814 16.9219 22.7797 16.8203 22.825 16.7094C22.8578 16.6328 22.9047 16.6156 22.9765 16.6531L23.0344 16.6859L23.1031 16.6516L23.1719 16.6187L23.2203 16.6656C23.264 16.7078 23.2672 16.7172 23.2625 16.7937C23.2515 16.9234 23.1719 17.0078 23.0469 17.025C22.989 17.0328 22.9672 17.0281 22.9234 16.9969Z" fill="#FB8D87"/>
    <path d="M9.96875 15.2656C9.96875 15.0109 9.97031 15 10 15C10.0297 15 10.0313 15.0109 10.0313 15.2656C10.0313 15.5203 10.0297 15.5313 10 15.5313C9.97031 15.5313 9.96875 15.5203 9.96875 15.2656Z" fill="#FB8D87"/>
    <path d="M9.96875 14.0078C9.96875 13.4797 9.96875 13.4688 10 13.4688C10.0313 13.4688 10.0313 13.4797 10.0313 14.0078C10.0313 14.5359 10.0313 14.5469 10 14.5469C9.96875 14.5469 9.96875 14.5359 9.96875 14.0078Z" fill="#FB8D87"/>
    <path d="M8.76408 14.4078C8.71252 14.3563 8.70627 14.3031 8.74221 14.2344C8.78752 14.1469 8.87658 14.1375 8.93752 14.2141C8.99533 14.2875 8.97346 14.3875 8.89064 14.4297C8.82814 14.4625 8.81721 14.4594 8.76408 14.4078Z" fill="#FB8D87"/>
    <path d="M16.6875 13.8813C16.6875 13.8125 16.7156 13.8156 16.7453 13.8875C16.7656 13.9359 16.7641 13.9375 16.7266 13.9375C16.6922 13.9375 16.6875 13.9313 16.6875 13.8813Z" fill="#FB8D87"/>
    <path d="M9.96875 13.3203C9.96875 13.2297 9.97188 13.2188 10 13.2188C10.0281 13.2188 10.0313 13.2297 10.0313 13.3203C10.0313 13.4109 10.0281 13.4219 10 13.4219C9.97188 13.4219 9.96875 13.4109 9.96875 13.3203Z" fill="#FB8D87"/>
    <path d="M8.88908 11.7391C8.86721 11.7359 8.82658 11.7125 8.80002 11.6875C8.73283 11.6266 8.73127 11.5531 8.79846 11.4781C8.88596 11.3766 9.02971 11.3922 9.08439 11.5062C9.11096 11.5641 9.10158 11.6141 9.05314 11.6766C9.02658 11.7094 8.94533 11.7578 8.93283 11.7484C8.93127 11.7469 8.91096 11.7422 8.88908 11.7391Z" fill="#FB8D87"/>
    <path d="M12.2 11.0828C12.1406 11.0188 12.1078 10.9453 12.0922 10.8375C12.0672 10.6594 11.9781 10.5141 11.8563 10.4516C11.8234 10.4344 11.7531 10.4109 11.6984 10.3969C11.6453 10.3828 11.5688 10.3516 11.5281 10.325L11.4531 10.2781V10.1703C11.4531 10.0313 11.4734 10.0109 11.675 9.9375C11.8594 9.87031 11.9922 9.75156 12.0953 9.56563C12.1438 9.47813 12.15 9.50313 12.1094 9.61406C12.0656 9.73125 11.9719 9.83125 11.8297 9.91406C11.6922 9.99531 11.6938 10.0078 11.8313 9.93438C11.9484 9.87188 12.0453 9.77656 12.1188 9.65156C12.1922 9.52656 12.2188 9.45 12.2188 9.36406C12.2188 9.3125 12.2281 9.28594 12.2578 9.25781C12.2781 9.23594 12.2875 9.21875 12.2766 9.21875C12.2469 9.22031 12.1906 9.27031 12.1828 9.30469C12.1781 9.32813 12.175 9.325 12.1734 9.29219C12.1719 9.26563 12.1859 9.23438 12.2109 9.21094C12.2438 9.17656 12.2625 9.17188 12.3578 9.17188C12.4563 9.17188 12.4703 9.17656 12.4984 9.2125C12.5156 9.23438 12.5344 9.28906 12.5406 9.34063C12.5516 9.43594 12.6516 9.64844 12.7281 9.73906C12.7719 9.79219 12.9219 9.89219 13.0578 9.9625C13.1781 10.0234 13.2344 10.0922 13.2344 10.1828C13.2344 10.2828 13.1734 10.3375 12.9984 10.3953C12.925 10.4188 12.8203 10.4656 12.7641 10.4984C12.6313 10.5781 12.5656 10.6922 12.5516 10.8625C12.5359 11.0547 12.475 11.125 12.325 11.125C12.2531 11.125 12.2344 11.1188 12.2 11.0828ZM12.4172 10.2656C12.5328 10.2141 12.5688 10.1063 12.5047 10.0031C12.4766 9.95625 12.3938 9.90625 12.3469 9.90625C12.25 9.90625 12.1531 9.99688 12.1313 10.1047C12.1203 10.1594 12.1797 10.2391 12.2563 10.2734C12.3219 10.3016 12.3406 10.3016 12.4172 10.2656ZM11.5813 10.0453C11.5984 10.0359 11.6078 10.025 11.6047 10.0203C11.5938 10.0109 11.5266 10.0453 11.5125 10.0688C11.4906 10.1 11.5 10.1125 11.525 10.0875C11.5375 10.0734 11.5641 10.0547 11.5813 10.0453ZM12.4453 9.23438C12.4266 9.2125 12.4 9.20469 12.3609 9.20625L12.3047 9.20781L12.3625 9.21406C12.3938 9.21719 12.4281 9.23125 12.4375 9.24375C12.4484 9.25625 12.4609 9.26563 12.4656 9.26563C12.4703 9.26563 12.4609 9.25156 12.4453 9.23438Z" fill="#FB8D87"/>
    <path d="M13.4375 7.78125C13.4375 7.75 13.4438 7.75 16.2969 7.75C19.1344 7.75 19.1563 7.75156 19.1563 7.78125C19.1563 7.8125 19.1344 7.8125 16.2969 7.8125C13.4438 7.8125 13.4375 7.8125 13.4375 7.78125Z" fill="#FB8D87"/>
    <path d="M12.0547 23.4047C11.6625 23.3891 11.4672 23.3266 11.189 23.1281C10.9547 22.9625 10.7156 22.6875 10.6078 22.4609C10.575 22.3922 10.5469 22.3438 10.5453 22.3516C10.5453 22.3609 10.5453 22.4047 10.5469 22.45L10.5484 22.5313H10.4937C10.439 22.5313 10.439 22.5313 10.4281 22.4438C10.4156 22.3359 10.4281 22.1203 10.4484 22.1141C10.4578 22.1109 10.4515 22.0625 10.4359 21.9969C10.4094 21.8891 10.4078 21.5844 10.4062 15.7656C10.4047 9.1 10.3984 9.57187 10.4875 9.28437C10.5656 9.02812 10.7687 8.74219 11.0078 8.55C11.2234 8.375 11.6437 8.20312 11.8531 8.20312C11.9422 8.20312 11.95 8.24375 11.864 8.25781C11.7312 8.28125 11.5953 8.31875 11.4844 8.36406C11.3406 8.42344 11.1312 8.55156 11.1375 8.57656C11.139 8.5875 11.1344 8.59219 11.125 8.58594C11.1031 8.57187 11.0609 8.61719 11.0797 8.63594C11.0984 8.65469 11.0531 8.75 11.0234 8.75C11.0031 8.75 10.9797 8.80312 10.9828 8.84531C10.9844 8.85937 10.975 8.87969 10.9609 8.89062C10.9484 8.90156 10.9375 8.90469 10.9375 8.89844C10.9375 8.89219 10.9203 8.90469 10.8984 8.92812C10.8594 8.97031 10.7734 8.98437 10.7625 8.95C10.7594 8.94062 10.7406 8.95625 10.7219 8.9875C10.6844 9.04844 10.6765 9.07969 10.7062 9.05C10.739 9.01719 10.7453 9.02969 10.7281 9.08594C10.7187 9.11562 10.7047 9.1375 10.6953 9.13437C10.6734 9.12656 10.6219 9.15469 10.6328 9.17031C10.6375 9.17812 10.6281 9.18906 10.6125 9.19531C10.589 9.20469 10.589 9.20781 10.6203 9.21875C10.6453 9.22969 10.6515 9.24062 10.6453 9.26875C10.6406 9.28906 10.6281 9.3125 10.6187 9.32031C10.6078 9.32969 10.5953 9.34844 10.589 9.3625C10.5828 9.37969 10.5703 9.38594 10.5547 9.38125C10.5422 9.37656 10.5312 9.37969 10.5312 9.38906C10.5312 9.4 10.5422 9.41094 10.5547 9.41562C10.5859 9.42812 10.5844 9.49062 10.5515 9.51719C10.5375 9.52969 10.5219 9.5375 10.5172 9.53437C10.5125 9.53125 10.5047 9.54062 10.5031 9.55469C10.4984 9.57187 10.5062 9.57812 10.5265 9.575C10.5453 9.57187 10.5562 9.58125 10.5594 9.60312C10.564 9.63437 10.6187 9.67187 10.6625 9.67187C10.689 9.67187 10.75 9.60469 10.75 9.575C10.75 9.56094 10.7453 9.5375 10.739 9.52344C10.7312 9.5 10.7265 9.50156 10.7094 9.53281C10.689 9.56875 10.689 9.56875 10.6875 9.5125C10.6875 9.45469 10.7094 9.42031 10.7234 9.45625C10.7281 9.46875 10.7375 9.45937 10.7469 9.43437C10.7562 9.4125 10.7719 9.38906 10.7797 9.38281C10.789 9.37812 10.7969 9.36562 10.7969 9.35781C10.7969 9.34844 10.7906 9.34687 10.7812 9.35156C10.7719 9.35781 10.7703 9.34844 10.7797 9.325C10.7875 9.30469 10.8015 9.29062 10.8125 9.29375C10.8219 9.29531 10.8265 9.29062 10.8219 9.28281C10.8172 9.275 10.8219 9.26094 10.8344 9.25156C10.8453 9.24219 10.8828 9.1875 10.9156 9.12969C10.9828 9.01406 11.1656 8.82812 11.3359 8.70312C11.4797 8.59687 11.4937 8.59062 11.6953 8.53281C12.0219 8.44062 12.0422 8.4375 12.6172 8.4375C13.1765 8.4375 13.5203 8.41875 13.5578 8.38906C13.5687 8.37812 13.5765 8.36719 13.5719 8.36406C13.5687 8.36094 13.5719 8.33281 13.5781 8.30312L13.5906 8.25H12.8031C12.0265 8.25 12.0156 8.25 12.0156 8.21875C12.0156 8.1875 12.0265 8.1875 12.8344 8.1875C13.4734 8.1875 13.6578 8.19219 13.6672 8.20781C13.6734 8.21719 13.6765 8.32187 13.675 8.4375C13.6703 8.71875 13.6906 8.83437 13.7734 9.00781C13.889 9.24531 14.0469 9.3875 14.2781 9.45937C14.3812 9.49062 14.414 9.49219 15.9375 9.49687C16.9547 9.5 17.5344 9.49531 17.614 9.48594C17.9125 9.44531 18.1953 9.19687 18.289 8.89062C18.3094 8.82656 18.3187 8.72344 18.3234 8.49531L18.3328 8.18437L19.2953 8.19531L20.2578 8.20469L20.414 8.25312C20.6344 8.31875 20.8125 8.41719 20.9937 8.57187C21.1953 8.74375 21.3109 8.88906 21.4156 9.10312C21.5594 9.4 21.5656 9.43437 21.5734 10.0812L21.5812 10.6375L21.5375 10.6609C21.5125 10.6734 21.4375 10.7406 21.3719 10.8094C21.3047 10.8781 21.239 10.9422 21.2234 10.9516C21.1969 10.9656 21.1953 11.2156 21.1859 16.5656C21.1765 22.6953 21.1844 22.25 21.089 22.5234C20.9437 22.9422 20.6078 23.2625 20.2031 23.3672C20.1515 23.3797 20.0344 23.3953 19.9422 23.3984C19.6609 23.4109 12.3406 23.4172 12.0547 23.4047ZM19.764 23.0391C19.875 23.025 20.175 22.9219 20.2422 22.875C20.3234 22.8203 20.4344 22.7 20.5047 22.5922C20.6359 22.3953 20.6797 22.1219 20.6125 21.9094C20.5406 21.6859 20.3078 21.425 20.1406 21.3859C20.1109 21.3781 20.0906 21.3531 20.0578 21.2781C19.9765 21.0891 19.7765 20.8875 19.5625 20.775C19.3547 20.6656 19.5703 20.6719 16.0281 20.6719C12.8875 20.6719 12.8344 20.6719 12.7047 20.7031C12.3234 20.7953 12.014 21.0781 11.9156 21.4266C11.8344 21.7078 11.889 21.9391 12.1 22.225C12.1453 22.2859 12.1953 22.3469 12.2109 22.3594C12.225 22.3719 12.2812 22.4453 12.3328 22.5234C12.5015 22.775 12.6469 22.8891 12.9219 22.9859L13.0234 23.0219L16.1719 23.0344C17.9031 23.0406 19.3906 23.0484 19.4765 23.05C19.639 23.0547 19.6515 23.0547 19.764 23.0391ZM16.5344 20.1484C16.739 20.1125 16.9609 20.0234 17.1172 19.9125C17.4156 19.7031 17.6187 19.3578 17.6359 19.0312C17.6469 18.85 17.6187 18.7312 17.5359 18.5812C17.4297 18.3906 17.2297 18.2141 17.075 18.175C17.0234 18.1609 16.9984 18.1437 16.9687 18.0953C16.8781 17.9531 16.725 17.7937 16.5984 17.7094C16.4781 17.6297 16.4687 17.6203 16.4687 17.5703V17.5156H16.5594C16.7203 17.5156 16.8797 17.4547 16.9906 17.35C17.0703 17.2734 17.0828 17.2203 17.0922 16.9141L17.1015 16.6328L17.1844 16.6219C17.475 16.5797 17.9859 16.3156 18.2469 16.0719C18.5703 15.7687 18.8328 15.2859 18.8906 14.8828C18.925 14.6344 18.9015 14.325 18.8297 14.1203C18.7625 13.9266 18.5984 13.6406 18.5547 13.6406C18.525 13.6406 18.4906 13.6984 18.4781 13.7703C18.4687 13.8234 18.464 13.8281 18.4125 13.8281C18.3625 13.8281 18.3562 13.8219 18.3281 13.7562C18.3109 13.7172 18.2969 13.6687 18.2969 13.6484C18.2969 13.5828 18.1531 13.2141 18.075 13.0844C17.9062 12.7953 17.6594 12.5328 17.3562 12.3219C17.1656 12.1891 16.7984 12.0219 16.5609 11.9609C16.3078 11.8953 15.8234 11.8672 15.6219 11.9078C15.4265 11.9453 15.3734 11.9594 15.1953 12.0109C14.75 12.1422 14.314 12.425 13.9984 12.7906C13.814 13.0031 13.7703 13.0625 13.6703 13.2422C13.5156 13.5187 13.4328 13.7953 13.4031 14.1422C13.375 14.4656 13.4094 14.5922 13.5765 14.7922C13.6937 14.9328 13.7312 14.9406 14.2547 14.9484C14.5281 14.9531 14.7109 14.95 14.7765 14.9375C15.0531 14.8906 15.2031 14.725 15.2344 14.4344C15.2578 14.2156 15.3312 14.0562 15.475 13.9125C15.5937 13.7937 15.6719 13.7656 15.8828 13.7656C16.0609 13.7656 16.1469 13.7937 16.2484 13.8844C16.3594 13.9844 16.3906 14.0578 16.3906 14.2219C16.3906 14.3 16.3812 14.3828 16.3672 14.4203C16.3125 14.575 16.175 14.7031 15.9422 14.8141C15.5156 15.0172 15.2187 15.4062 15.0765 15.9453C15.0422 16.075 15.039 16.1156 15.039 16.4687V16.8516L15.0859 16.9422C15.1672 17.1031 15.3094 17.2031 15.4594 17.2031C15.5125 17.2031 15.5156 17.2062 15.5156 17.2531C15.5156 17.2812 15.5015 17.3172 15.4844 17.3359L15.4515 17.3703L15.5234 17.4359C15.5765 17.4844 15.5937 17.5125 15.5937 17.5469C15.5937 17.5875 15.5828 17.5984 15.5125 17.6344C15.2781 17.7531 15.1015 17.9187 14.9953 18.1219C14.8656 18.3703 14.825 18.5875 14.8687 18.8141C14.9 18.9875 14.9734 19.1359 15.1297 19.3453C15.2 19.4391 15.2969 19.5703 15.3437 19.6344C15.5109 19.8641 15.675 19.9844 15.9656 20.0891C16.0984 20.1375 16.2265 20.1625 16.3609 20.1703C16.3844 20.1703 16.4609 20.1609 16.5344 20.1484ZM19.6828 19.7453C19.7422 19.5469 19.8406 19.4469 20.0359 19.3891C20.0984 19.3703 20.1547 19.35 20.1625 19.3422C20.1922 19.3156 20.1375 19.2844 20.0156 19.2594C19.9484 19.2437 19.8687 19.2172 19.8406 19.1969C19.7703 19.15 19.6844 18.9797 19.675 18.8672C19.6687 18.7828 19.6656 18.7797 19.6265 18.7844C19.5953 18.7875 19.5859 18.7984 19.5828 18.8297C19.5797 18.8781 19.5359 19.0547 19.5125 19.1125C19.489 19.175 19.4125 19.2156 19.239 19.2594C19.1547 19.2812 19.0844 19.3016 19.0797 19.3047C19.0625 19.3234 19.1203 19.3578 19.2078 19.3828C19.2609 19.3969 19.3234 19.4203 19.3469 19.4312C19.4609 19.4906 19.5594 19.6219 19.5859 19.75C19.614 19.8969 19.639 19.8969 19.6828 19.7453ZM12.4062 19.7781C12.4437 19.6234 12.4547 19.5969 12.5062 19.5359C12.5625 19.4719 12.6609 19.4172 12.8094 19.3687C12.8547 19.3531 12.889 19.3328 12.8859 19.3234C12.8828 19.3141 12.825 19.2875 12.7562 19.2656C12.689 19.2437 12.6187 19.2172 12.6015 19.2078C12.5281 19.1672 12.4797 19.0922 12.4281 18.9422C12.389 18.8297 12.3687 18.7891 12.35 18.7891C12.3281 18.7891 12.3219 18.8062 12.3203 18.8672C12.3156 18.9781 12.2594 19.1141 12.1953 19.1703C12.1453 19.2141 12.0562 19.25 11.9969 19.25C11.9469 19.25 11.8281 19.3109 11.8359 19.3328C11.8406 19.3437 11.8953 19.3687 11.9578 19.3875C12.0937 19.4266 12.2078 19.4969 12.25 19.5656C12.2672 19.5937 12.2953 19.6625 12.3125 19.7156C12.3609 19.8703 12.3797 19.8828 12.4062 19.7781ZM13.8328 18.9672C13.9094 18.9281 13.9375 18.8875 13.9375 18.8187C13.9375 18.7328 13.875 18.6656 13.7812 18.65C13.6672 18.6312 13.589 18.7016 13.6 18.8125C13.6047 18.8672 13.6172 18.8922 13.6625 18.9328C13.7219 18.9875 13.7734 18.9969 13.8328 18.9672ZM18.325 18.8312C18.3359 18.8234 18.3469 18.7953 18.3515 18.7687C18.3547 18.7406 18.3515 18.7219 18.3422 18.7266C18.3344 18.7328 18.3281 18.7219 18.3281 18.7047C18.3281 18.6828 18.314 18.6687 18.289 18.6625C18.2375 18.65 18.2109 18.6609 18.2109 18.6969C18.2109 18.7125 18.2015 18.725 18.1922 18.7234C18.1625 18.7172 18.1672 18.7891 18.1969 18.8187C18.2219 18.8453 18.2922 18.8516 18.325 18.8312ZM14.2719 18.2641C14.3609 18.1594 14.3015 18.0469 14.1578 18.0469C14.0734 18.0469 14.0469 18.0672 14.0469 18.1281C14.0469 18.2875 14.1828 18.3703 14.2719 18.2641ZM17.9906 18.1969C18.1062 18.1484 18.1437 18.0234 18.0734 17.9203C18.025 17.8484 17.9765 17.825 17.8844 17.8328C17.8234 17.8391 17.7984 17.8484 17.7687 17.8844C17.7344 17.9234 17.7312 17.9391 17.739 18.0203C17.7547 18.1859 17.8515 18.2547 17.9906 18.1969ZM13.3984 17.2734C13.4453 17.2281 13.4484 17.1703 13.4078 17.1344C13.3359 17.0703 13.2812 17.0641 12.714 17.0625C12.0828 17.0625 12.0625 17.0656 12.0625 17.1687C12.0625 17.2125 12.0734 17.2422 12.1015 17.2719L12.139 17.3125H12.75H13.3609L13.3984 17.2734ZM19.9328 17.3C19.9437 17.2937 19.9625 17.2625 19.975 17.2312C19.9969 17.1781 19.9969 17.1719 19.9672 17.1344C19.95 17.1125 19.9094 17.0875 19.8781 17.0781C19.8437 17.0687 19.5969 17.0625 19.2609 17.0625H18.7015L18.664 17.1016C18.6203 17.1437 18.6172 17.1641 18.6406 17.2297C18.6719 17.3141 18.6625 17.3125 19.3109 17.3125C19.6422 17.3125 19.9219 17.3062 19.9328 17.3ZM20.075 15.775C20.2219 15.6984 20.2172 15.5312 20.0656 15.4547C19.9875 15.4141 19.9109 15.4328 19.8515 15.5031C19.8172 15.5437 19.8125 15.5625 19.8203 15.6078C19.8484 15.7609 19.9594 15.8344 20.075 15.775ZM11.9797 15.7469C12.0203 15.7016 12.039 15.6047 12.014 15.5594C12.0047 15.5391 11.9781 15.5047 11.9562 15.4812C11.8406 15.3562 11.6781 15.5281 11.7609 15.6875C11.8094 15.7812 11.9203 15.8109 11.9797 15.7469ZM11.964 15.2031C11.9828 15.1859 12.0015 15.1437 12.0078 15.1062C12.025 14.9937 12.0109 14.5344 11.989 14.5141C11.9594 14.4844 11.825 14.4781 11.789 14.5047C11.7594 14.5281 11.7578 14.5469 11.7578 14.8406C11.7578 15.1703 11.7625 15.1891 11.8359 15.2187C11.889 15.2406 11.9297 15.2359 11.964 15.2031ZM20.1172 14.7031C20.1922 14.6328 20.1703 14.4922 20.0765 14.4437C19.9703 14.3891 19.8625 14.4187 19.8265 14.5109C19.8078 14.5594 19.839 14.6547 19.8922 14.7078C19.9344 14.7484 19.9469 14.7531 20.0094 14.7453C20.0515 14.7406 20.0953 14.725 20.1172 14.7031ZM19.875 13.3203C19.875 13.2797 19.9406 13.1047 19.9781 13.0453C20.0234 12.9719 20.0953 12.9281 20.2703 12.8687C20.3484 12.8422 20.4125 12.8141 20.4109 12.8047C20.4094 12.7969 20.3578 12.7719 20.2937 12.7484C20.1453 12.6953 20.0625 12.6531 20.0203 12.6062C19.9797 12.5625 19.9078 12.4219 19.8828 12.3375C19.8719 12.3031 19.8562 12.2719 19.8469 12.2687C19.839 12.2672 19.8203 12.3016 19.8062 12.3484C19.7734 12.4609 19.6781 12.6016 19.5953 12.6562C19.5594 12.6812 19.4922 12.7125 19.4453 12.7281C19.3625 12.7531 19.3578 12.7531 19.3265 12.725C19.2969 12.6984 19.2656 12.6953 19.0172 12.6953C18.7172 12.6953 18.6719 12.7062 18.6719 12.7734C18.6719 12.8328 18.7047 12.8906 18.7453 12.9016C18.7672 12.9062 18.9015 12.9078 19.0453 12.9031C19.25 12.8984 19.314 12.8906 19.3422 12.8719C19.3719 12.85 19.3859 12.85 19.4469 12.8687C19.5328 12.8937 19.6234 12.9578 19.689 13.0406C19.739 13.1016 19.8125 13.2484 19.8125 13.2859C19.8125 13.3078 19.8437 13.3437 19.8625 13.3437C19.8687 13.3437 19.875 13.3328 19.875 13.3203ZM12.275 13.3016C12.3047 13.2109 12.375 13.0922 12.4359 13.0266C12.55 12.9031 12.5562 12.9016 12.9234 12.9C13.2172 12.8984 13.25 12.8953 13.2797 12.8687C13.2984 12.8516 13.3125 12.8203 13.3125 12.7953C13.3125 12.7141 13.2594 12.7016 12.8859 12.6969C12.6672 12.6953 12.5437 12.6875 12.5219 12.675C12.4578 12.6406 12.3547 12.5078 12.3015 12.3953C12.2734 12.3328 12.2422 12.2812 12.2359 12.2812C12.2281 12.2812 12.2062 12.3281 12.1875 12.3875C12.1687 12.4453 12.1375 12.5187 12.1172 12.55C12.075 12.6141 11.9375 12.7016 11.8281 12.7328C11.6344 12.7891 11.6437 12.8484 11.8515 12.8828C11.925 12.8953 12.0297 12.9531 12.0875 13.0125C12.1328 13.0609 12.1969 13.1844 12.2203 13.2687C12.2359 13.3312 12.2609 13.3453 12.275 13.3016ZM10.614 12.1047C10.7047 12.0656 10.7109 12.0484 10.7109 11.8062C10.7125 11.6844 10.7187 11.3422 10.725 11.0453C10.7359 10.6578 10.7344 10.5016 10.7219 10.4937C10.7125 10.4875 10.7094 10.4609 10.714 10.4312C10.7297 10.3359 10.6625 10.2734 10.5375 10.2625L10.4765 10.2578L10.4797 10.6953C10.4828 10.9719 10.4906 11.1344 10.5 11.1375C10.5219 11.1453 10.5187 11.225 10.4969 11.2469C10.4828 11.2609 10.475 11.3828 10.4719 11.6953L10.4656 12.125H10.514C10.5406 12.125 10.5859 12.1156 10.614 12.1047ZM14.2219 11.6859C14.239 11.6641 14.2562 11.6156 14.2609 11.5797C14.2687 11.5219 14.264 11.5078 14.2265 11.4672C14.1969 11.4375 14.1656 11.4219 14.1344 11.4219C14.075 11.4219 13.989 11.4797 13.9765 11.5297C13.939 11.6797 14.1344 11.8047 14.2219 11.6859ZM17.9547 11.7078C17.9828 11.6906 18.0062 11.6594 18.0156 11.625C18.0375 11.5469 18.0344 11.5297 17.9953 11.4797C17.9656 11.4437 17.9453 11.4359 17.8797 11.4328C17.775 11.4281 17.7344 11.4625 17.7344 11.5531C17.7359 11.6297 17.7625 11.6844 17.814 11.7125C17.8656 11.7406 17.9015 11.7391 17.9547 11.7078ZM12.4219 11.0359C12.4844 10.9781 12.4875 10.9719 12.5031 10.8437C12.5359 10.5656 12.6469 10.4516 12.9922 10.3328C13.0515 10.3125 13.1203 10.2781 13.1437 10.2547C13.2265 10.175 13.189 10.1016 13.0203 10.0094C12.8656 9.92344 12.75 9.85 12.7031 9.80469C12.6797 9.78281 12.6265 9.7 12.5828 9.62031C12.525 9.5125 12.5015 9.45312 12.4937 9.38281C12.4828 9.2875 12.4531 9.22344 12.4125 9.20781C12.3765 9.19375 12.2609 9.21719 12.2234 9.24687C12.1984 9.26719 12.1812 9.3125 12.1578 9.42656C12.1187 9.6125 12.0844 9.69531 12.0078 9.77969C11.9375 9.85781 11.7797 9.95312 11.6328 10.0062C11.575 10.0281 11.5203 10.0547 11.514 10.0656C11.5062 10.0766 11.5 10.1187 11.5 10.1594C11.5 10.2172 11.5078 10.2375 11.5375 10.2609C11.5812 10.2953 11.6672 10.3328 11.7656 10.3594C11.85 10.3828 11.9484 10.4312 11.9937 10.4719C12.0531 10.525 12.1109 10.6547 12.1344 10.7828C12.1625 10.9422 12.2078 11.0297 12.2859 11.0734C12.3375 11.1016 12.35 11.0984 12.4219 11.0359ZM16.0781 10.9422C16.1672 10.7469 16.225 10.6875 16.364 10.6422C16.4312 10.6187 16.5 10.5687 16.5 10.5391C16.5 10.5281 16.45 10.5 16.3875 10.4766C16.2375 10.4203 16.1828 10.3656 16.1031 10.1953C16.0281 10.0375 15.9984 10.0031 15.9703 10.0375C15.9609 10.0484 15.9344 10.1094 15.914 10.1734C15.8594 10.3328 15.8 10.3906 15.6062 10.4672C15.5562 10.4875 15.5156 10.5109 15.5156 10.5187C15.5156 10.5609 15.5594 10.5984 15.6609 10.6469C15.8078 10.7172 15.864 10.775 15.9328 10.925C15.964 10.9922 15.9969 11.0469 16.0078 11.0469C16.0187 11.0469 16.05 11 16.0781 10.9422ZM18.4765 10.9953C18.514 10.9422 18.5062 10.8375 18.4625 10.7859C18.4297 10.7484 18.4125 10.7422 18.3469 10.7422C18.2359 10.7422 18.2125 10.7672 18.2234 10.8719C18.2328 10.9672 18.264 11.0109 18.3344 11.0281C18.4 11.0453 18.45 11.0344 18.4765 10.9953ZM13.8422 10.9703C13.9125 10.9047 13.9015 10.8172 13.8172 10.7422C13.764 10.6953 13.6969 10.6922 13.6281 10.7344C13.5359 10.7906 13.5312 10.8531 13.6125 10.9547C13.6734 11.0281 13.7719 11.0359 13.8422 10.9703ZM19.989 10.7656C19.9969 10.7359 20 10.6469 19.9969 10.5687C19.9922 10.4422 19.9875 10.4219 19.9484 10.3703C19.925 10.3391 19.8953 10.3125 19.8859 10.3125C19.875 10.3125 19.839 10.3406 19.8047 10.375C19.7547 10.4266 19.7437 10.45 19.7312 10.5312C19.7125 10.6719 19.7562 10.8359 19.8234 10.8734C19.8687 10.8984 19.9719 10.8297 19.989 10.7656ZM19.6594 10.3484C19.7109 10.3234 19.739 10.275 19.7265 10.2359C19.7219 10.2219 19.6969 10.1875 19.6703 10.1625C19.6234 10.1187 19.6203 10.1172 19.4531 10.1172C19.3094 10.1187 19.2781 10.1234 19.2515 10.1469C19.2094 10.1844 19.2078 10.2797 19.2469 10.3281C19.2953 10.3875 19.5578 10.4 19.6594 10.3484ZM20.514 10.3375C20.5594 10.2969 20.5562 10.2172 20.5094 10.1609C20.4719 10.1172 20.4703 10.1172 20.2844 10.1172C20.1562 10.1187 20.089 10.125 20.0734 10.1391C20.0375 10.1687 20.0265 10.2422 20.05 10.2922C20.0797 10.3547 20.1531 10.375 20.3312 10.3703C20.4531 10.3672 20.489 10.3609 20.514 10.3375ZM19.9719 10.0766C19.9922 10.0375 20 9.99062 20 9.8875C20 9.6875 19.9672 9.625 19.8609 9.625C19.7734 9.625 19.7594 9.65156 19.7531 9.82969C19.7453 10.0187 19.7515 10.0469 19.8219 10.1172C19.8734 10.1687 19.8812 10.1719 19.9109 10.1516C19.9281 10.1406 19.9562 10.1062 19.9719 10.0766ZM20.35 8.85781C20.4781 8.70625 20.2719 8.52812 20.1312 8.67031C20.0781 8.72344 20.0875 8.80156 20.1562 8.86406C20.2234 8.92344 20.2969 8.92187 20.35 8.85781Z" fill="#21B1CD"/>
    <path d="M13.1531 21.0672C13.1375 21.0641 13.125 21.05 13.125 21.0375C13.125 21.0203 13.1578 21.0156 13.2891 21.0156C13.4422 21.0156 13.4531 21.0172 13.4531 21.0469C13.4531 21.0766 13.4438 21.0781 13.3172 21.0766C13.2406 21.075 13.1672 21.0719 13.1531 21.0672Z" fill="#21B1CD"/>
    <path d="M18.8906 21.0469C18.8906 21.0188 18.9016 21.0156 19.0234 21.0156C19.1266 21.0156 19.1563 21.0203 19.1563 21.0375C19.1563 21.0656 19.1078 21.0781 18.9891 21.0781C18.9016 21.0781 18.8906 21.075 18.8906 21.0469Z" fill="#21B1CD"/>
    <path d="M15.75 19.3859C15.6859 19.3656 15.5953 19.3297 15.55 19.3047C15.3078 19.1734 15.1641 18.8547 15.1937 18.5188C15.2047 18.4047 15.25 18.2531 15.2859 18.2141C15.2969 18.2031 15.3125 18.1797 15.3219 18.1641C15.3328 18.1453 15.3594 18.1313 15.3906 18.1281L15.4437 18.1219L15.4 18.175C15.3766 18.2031 15.3359 18.2719 15.3078 18.3281C15.2016 18.5469 15.2406 18.8609 15.4016 19.075C15.4453 19.1328 15.4719 19.1328 15.4312 19.075C15.3891 19.0156 15.4031 19.0094 15.4641 19.0625C15.5922 19.1766 15.8281 19.2391 16.0031 19.2063C16.2953 19.1516 16.4891 18.9578 16.5734 18.6344C16.6141 18.4766 16.6141 18.4813 16.6 18.4109C16.5937 18.3781 16.5969 18.3594 16.6078 18.3594C16.6172 18.3594 16.625 18.3703 16.625 18.3828C16.625 18.3953 16.6359 18.4063 16.65 18.4063C16.7078 18.4063 16.5984 18.2063 16.4875 18.1109C16.2062 17.8656 15.8406 17.8391 15.5469 18.0406L15.4687 18.0938V18.0469C15.4687 18.0156 15.4781 17.9953 15.4969 17.9891C15.5109 17.9828 15.5328 17.9703 15.5422 17.9594C15.5703 17.9313 15.7266 17.875 15.8281 17.8563C15.9797 17.8281 16.2734 17.8703 16.3312 17.9281C16.3422 17.9391 16.3719 17.9531 16.3953 17.9594C16.4187 17.9641 16.4375 17.9797 16.4375 17.9922C16.4375 18.0047 16.4516 18.0156 16.4687 18.0156C16.4859 18.0156 16.5047 18.0266 16.5094 18.0391C16.5156 18.0516 16.5281 18.0625 16.5391 18.0625C16.5703 18.0625 16.6562 18.1688 16.6969 18.2578C16.7797 18.4406 16.8 18.6188 16.7594 18.8141C16.6984 19.0953 16.5156 19.2922 16.2297 19.3828C16.0719 19.4328 15.9141 19.4344 15.75 19.3859Z" fill="#21B1CD"/>
    <path d="M15.4109 16.8594C15.3797 16.8469 15.375 16.8328 15.375 16.7578C15.375 16.6938 15.3813 16.6719 15.3969 16.6719C15.4109 16.6719 15.425 16.6969 15.4328 16.7391L15.4469 16.8047L15.5469 16.8063C15.6359 16.8094 15.6406 16.8078 15.5781 16.7984C15.5391 16.7922 15.4984 16.7828 15.4891 16.7766C15.4375 16.7438 15.4828 16.7344 15.6844 16.7344C15.8047 16.7344 15.9969 16.7297 16.1141 16.7234L16.3266 16.7141L16.3359 16.6109C16.3516 16.4391 16.3875 16.3125 16.4672 16.1469C16.5578 15.9641 16.65 15.8672 16.9297 15.6641C17.3172 15.3844 17.5344 15.1547 17.6875 14.8703C17.7656 14.725 17.85 14.4672 17.8813 14.2797C17.9094 14.1063 17.9172 13.7719 17.8938 13.6719C17.8391 13.4422 17.6547 13.1313 17.4453 12.9188C17.1188 12.5859 16.7438 12.3969 16.2313 12.3063C16.1516 12.2922 16.15 12.25 16.2281 12.25C16.3953 12.25 16.9063 12.4109 16.9063 12.4625C16.9063 12.475 16.9219 12.4844 16.9453 12.4844C16.9875 12.4844 17.0625 12.5141 17.0625 12.5328C17.0625 12.5391 17.0797 12.5484 17.1016 12.5531C17.1234 12.5594 17.1406 12.5703 17.1406 12.5781C17.1406 12.5875 17.1516 12.5938 17.1641 12.5938C17.1766 12.5938 17.1875 12.6016 17.1875 12.6094C17.1875 12.6188 17.1984 12.625 17.2109 12.625C17.225 12.625 17.2391 12.6344 17.2438 12.6469C17.2484 12.6594 17.2656 12.6719 17.2828 12.6766C17.3 12.6813 17.3125 12.6984 17.3125 12.7172C17.3125 12.7406 17.3219 12.75 17.3484 12.75C17.3906 12.75 17.4375 12.7938 17.4375 12.8328C17.4375 12.8484 17.45 12.8594 17.4656 12.8594C17.5016 12.8594 17.5938 12.9531 17.5938 12.9891C17.5938 13.0031 17.6047 13.0156 17.6172 13.0156C17.6297 13.0156 17.6406 13.0297 17.6406 13.0469C17.6406 13.0641 17.6516 13.0781 17.6641 13.0781C17.6766 13.0781 17.6875 13.0891 17.6875 13.1016C17.6875 13.1141 17.6953 13.125 17.7031 13.125C17.7125 13.125 17.7188 13.1359 17.7188 13.1484C17.7188 13.1609 17.7266 13.1719 17.7344 13.1719C17.7438 13.1719 17.75 13.1969 17.75 13.2266C17.75 13.2688 17.7563 13.2813 17.7781 13.2813C17.8063 13.2813 17.8438 13.3391 17.8438 13.3828C17.8438 13.3953 17.85 13.4063 17.8578 13.4063C17.8766 13.4063 17.9438 13.5844 17.9859 13.75C18.0484 13.9953 18.0438 14.4625 17.9766 14.7469C17.9422 14.8875 17.8172 15.1375 17.7094 15.2813C17.5422 15.5016 17.3906 15.6406 17.0641 15.8672C16.675 16.1391 16.5469 16.3641 16.5469 16.7859V16.875L15.9969 16.8734C15.6938 16.8734 15.4297 16.8672 15.4109 16.8594Z" fill="#21B1CD"/>
    <path d="M15.375 16.1375C15.375 15.9922 15.5219 15.5781 15.5734 15.5781C15.5844 15.5781 15.5938 15.5641 15.5938 15.5469C15.5938 15.5297 15.6016 15.5156 15.6094 15.5156C15.6188 15.5156 15.625 15.5047 15.625 15.4922C15.625 15.4797 15.6359 15.4688 15.6484 15.4688C15.6609 15.4688 15.6719 15.4547 15.6719 15.4375C15.6719 15.4125 15.6828 15.4062 15.7203 15.4062H15.7672L15.6953 15.5047C15.5594 15.6891 15.4703 15.8984 15.4313 16.1297C15.4172 16.2047 15.375 16.2094 15.375 16.1375Z" fill="#21B1CD"/>
    <path d="M15.8 15.3266C15.8031 15.2859 15.8125 15.2719 15.8406 15.2687C15.8594 15.2656 15.875 15.2531 15.875 15.2406C15.875 15.2281 15.8891 15.2187 15.9062 15.2187C15.9234 15.2187 15.9375 15.2078 15.9375 15.1953C15.9375 15.1828 15.9484 15.1719 15.9609 15.1719C15.9734 15.1719 15.9844 15.1656 15.9844 15.1562C15.9844 15.1484 16.0016 15.1406 16.0234 15.1406C16.0469 15.1406 16.0625 15.1312 16.0625 15.1187C16.0625 15.0953 16.0953 15.0781 16.1422 15.0781C16.1578 15.0781 16.1719 15.0672 16.1719 15.0547C16.1719 15.0406 16.1859 15.0312 16.2109 15.0312C16.2359 15.0312 16.25 15.0219 16.25 15.0078C16.25 14.9922 16.2672 14.9844 16.3047 14.9844C16.3531 14.9844 16.3594 14.9797 16.3594 14.9453C16.3594 14.9219 16.3687 14.9062 16.3812 14.9062C16.3937 14.9062 16.4062 14.8953 16.4125 14.8828C16.4172 14.8672 16.4422 14.8594 16.4781 14.8594C16.5266 14.8594 16.5328 14.8625 16.5156 14.8828C16.4859 14.9187 16.3156 15.0344 16.15 15.1328C16.0687 15.1797 15.9641 15.2484 15.9187 15.2844C15.8734 15.3187 15.8266 15.3562 15.8156 15.3641C15.7984 15.3781 15.7953 15.3703 15.8 15.3266Z" fill="#21B1CD"/>
    <path d="M16.5469 14.7891C16.5469 14.7547 16.5563 14.7297 16.5703 14.725C16.5828 14.7188 16.5938 14.7047 16.5938 14.6938C16.5938 14.6813 16.6047 14.6672 16.6172 14.6625C16.6297 14.6563 16.6406 14.6438 16.6406 14.6313C16.6406 14.6188 16.6563 14.6094 16.6797 14.6094C16.7016 14.6094 16.7188 14.6156 16.7188 14.6234C16.7188 14.6406 16.5875 14.8203 16.5641 14.8344C16.5531 14.8422 16.5469 14.8266 16.5469 14.7891Z" fill="#21B1CD"/>
    <path d="M13.8328 14.5984C13.8219 14.5953 13.8125 14.5813 13.8125 14.5688C13.8125 14.5563 13.8031 14.5469 13.7906 14.5469C13.7656 14.5469 13.75 14.5 13.75 14.4266C13.75 14.3484 13.7891 14.3609 13.8109 14.4453C13.8313 14.5281 13.8609 14.5469 13.9641 14.5453C14.0203 14.5453 14.0313 14.5406 14.0078 14.5313C13.9766 14.5172 13.9766 14.5172 14.0094 14.5172C14.0266 14.5156 14.0469 14.5094 14.0563 14.5C14.0641 14.4922 14.2016 14.4828 14.3656 14.4813L14.6609 14.4766L14.6641 14.4219C14.6703 14.3516 14.7109 14.1906 14.75 14.0922C14.7797 14.0172 14.9031 13.8328 14.9828 13.7438C15.0359 13.6859 15.2188 13.5469 15.2422 13.5469C15.2516 13.5469 15.2984 13.5266 15.3453 13.5016C15.4563 13.4406 15.6375 13.3813 15.7719 13.3594C15.8594 13.3453 15.9094 13.3469 16.0359 13.3672C16.1969 13.3922 16.25 13.4109 16.25 13.4406C16.25 13.4578 16.2188 13.4547 16.0078 13.4219C15.8344 13.3938 15.65 13.4313 15.4438 13.5359C15.2313 13.6438 15.0172 13.9031 14.9313 14.1609C14.9172 14.2016 14.8953 14.3094 14.8813 14.4C14.8672 14.4906 14.8453 14.575 14.8328 14.5875C14.8141 14.6063 14.7281 14.6094 14.3313 14.6078C14.0672 14.6078 13.8422 14.6031 13.8328 14.5984ZM14.8094 14.4047C14.8047 14.3734 14.8016 14.375 14.7953 14.4188C14.7906 14.45 14.7922 14.4641 14.8016 14.4547C14.8094 14.4469 14.8125 14.425 14.8094 14.4047Z" fill="#21B1CD"/>
    <path d="M16.7031 14.5406C16.7031 14.5094 16.7094 14.4844 16.7172 14.4844C16.725 14.4844 16.7359 14.4453 16.7422 14.3984C16.75 14.3281 16.7578 14.3125 16.7828 14.3125C16.8219 14.3125 16.8203 14.3547 16.7766 14.4828C16.7375 14.6 16.7031 14.625 16.7031 14.5406Z" fill="#21B1CD"/>
    <path d="M16.7375 14.0969C16.714 13.9422 16.714 13.9219 16.7406 13.9219C16.7562 13.9219 16.7719 13.9594 16.7875 14.0297C16.8203 14.175 16.8203 14.2188 16.7844 14.2188C16.7625 14.2188 16.7531 14.1969 16.7375 14.0969Z" fill="#21B1CD"/>
    <path d="M13.75 14.1422C13.75 14.1094 13.7547 14.0391 13.7594 13.9859C13.7687 13.9063 13.775 13.8906 13.8 13.8906C13.8266 13.8906 13.8281 13.9 13.8203 13.9969C13.8047 14.1672 13.7969 14.2031 13.7734 14.2031C13.7562 14.2031 13.75 14.1859 13.75 14.1422Z" fill="#21B1CD"/>
    <path d="M16.6406 13.8203C16.6406 13.8078 16.6344 13.7969 16.625 13.7969C16.6172 13.7969 16.6094 13.7844 16.6094 13.7672C16.6094 13.7516 16.5953 13.7344 16.5781 13.7297C16.5563 13.725 16.5469 13.7078 16.5469 13.6813C16.5469 13.6484 16.5391 13.6406 16.5078 13.6406C16.4859 13.6406 16.4609 13.6266 16.45 13.6094C16.4391 13.5922 16.4219 13.5781 16.4109 13.5781C16.4 13.5781 16.3906 13.5719 16.3906 13.5625C16.3906 13.5547 16.3797 13.5469 16.3672 13.5469C16.3531 13.5469 16.3438 13.5328 16.3438 13.5078C16.3438 13.4859 16.3484 13.4688 16.3563 13.4688C16.3734 13.4688 16.4844 13.5453 16.5375 13.5922C16.5891 13.6391 16.7188 13.8094 16.7188 13.8297C16.7188 13.8375 16.7016 13.8438 16.6797 13.8438C16.6547 13.8438 16.6406 13.8344 16.6406 13.8203Z" fill="#21B1CD"/>
    <path d="M13.8281 13.725C13.8281 13.6703 13.8609 13.5625 13.8781 13.5625C13.8844 13.5625 13.8906 13.5484 13.8906 13.5313C13.8906 13.4984 13.9781 13.3109 14 13.2969C14.0063 13.2922 14.0156 13.2734 14.0219 13.2547C14.0281 13.2344 14.0406 13.2188 14.0484 13.2188C14.0563 13.2188 14.0625 13.2078 14.0625 13.1953C14.0625 13.1813 14.0734 13.1672 14.0859 13.1625C14.0984 13.1563 14.1094 13.1422 14.1094 13.1313C14.1094 13.1188 14.1203 13.1047 14.1328 13.1C14.1453 13.0938 14.1563 13.0797 14.1563 13.0688C14.1563 13.0563 14.1656 13.0422 14.1781 13.0375C14.1906 13.0328 14.2031 13.0156 14.2078 12.9984C14.2141 12.9766 14.2297 12.9688 14.2656 12.9688H14.3156L14.2781 13.0203C14.2578 13.0469 14.2047 13.1188 14.1594 13.1766C14.0672 13.3016 13.9375 13.5469 13.8969 13.6766C13.8688 13.7688 13.8281 13.7969 13.8281 13.725Z" fill="#21B1CD"/>
    <path d="M14.3281 12.9109C14.3281 12.8531 14.3531 12.8281 14.4094 12.8281C14.4453 12.8281 14.4531 12.8219 14.4531 12.7891C14.4531 12.7578 14.4609 12.75 14.4922 12.75C14.5203 12.75 14.5312 12.7422 14.5312 12.7188C14.5312 12.6984 14.5422 12.6875 14.5625 12.6875C14.5797 12.6875 14.5937 12.6766 14.5937 12.6641C14.5937 12.6516 14.6047 12.6406 14.6172 12.6406C14.6297 12.6406 14.6406 12.6344 14.6406 12.6266C14.6406 12.6188 14.6562 12.6063 14.675 12.6C14.6937 12.5953 14.7187 12.5797 14.7312 12.5688C14.7422 12.5563 14.7687 12.5469 14.7906 12.5469C14.8109 12.5469 14.8281 12.5375 14.8281 12.5266C14.8281 12.5016 14.8922 12.4688 14.9375 12.4688C14.9547 12.4688 14.9687 12.4625 14.9687 12.4547C14.9687 12.4063 15.5125 12.2516 15.6844 12.25C15.7703 12.25 15.7766 12.2906 15.6922 12.3047C15.2187 12.3781 14.8156 12.55 14.5094 12.8078C14.45 12.8578 14.3859 12.9109 14.3656 12.9266C14.3281 12.9563 14.3281 12.9563 14.3281 12.9109Z" fill="#21B1CD"/>
    <path d="M15.7656 12.2656C15.7656 12.2391 15.7766 12.2344 15.8359 12.2344C15.9125 12.2344 15.9359 12.2703 15.8719 12.2875C15.8016 12.3063 15.7656 12.2984 15.7656 12.2656Z" fill="#21B1CD"/>
    <path d="M16.0437 12.2859C15.9875 12.2719 16.0125 12.2344 16.0781 12.2344C16.1297 12.2344 16.1406 12.2391 16.1406 12.2656C16.1406 12.2969 16.1094 12.3031 16.0437 12.2859Z" fill="#21B1CD"/>
    <path d="M14.3047 9.11719C14.2219 9.08906 14.1188 8.97344 14.0797 8.86563C14.0516 8.79063 14.0469 8.74531 14.0469 8.49219V8.20312H15.8313C16.8125 8.20312 17.6422 8.20781 17.675 8.2125C17.7297 8.22188 17.7344 8.22656 17.7344 8.275C17.7344 8.33438 17.7469 8.33125 17.5234 8.33594C17.4641 8.3375 17.3172 8.34375 17.1969 8.35156C17.0031 8.36094 16.9797 8.36563 16.9734 8.39219C16.9688 8.40781 16.9531 8.42188 16.9391 8.42188C16.9234 8.42188 16.8953 8.44375 16.8766 8.47031C16.8406 8.51719 16.8391 8.51875 16.7375 8.50938C16.6797 8.50469 16.3578 8.49688 16.0203 8.49063C15.3859 8.48125 15.3281 8.48438 15.2594 8.54531C15.2438 8.55938 15.2219 8.58906 15.2094 8.6125C15.1891 8.65156 15.1891 8.6625 15.2109 8.70313C15.2594 8.79688 15.2422 8.79375 16.0078 8.80313L16.7109 8.8125L16.7688 8.76563C16.8109 8.73125 16.8422 8.71875 16.8891 8.71875H16.9531V8.78125C16.9531 8.83438 16.9484 8.84375 16.9219 8.84375C16.9047 8.84375 16.8859 8.85469 16.8813 8.86719C16.8766 8.87969 16.8594 8.89375 16.8422 8.89844C16.7906 8.91563 16.8188 9.01563 16.8734 9.01563C16.8828 9.01563 16.8906 9.03906 16.8906 9.06719V9.12031L16.6297 9.12969C16.4875 9.13594 15.9188 9.14063 15.3688 9.14063C14.5516 9.13906 14.3563 9.13594 14.3047 9.11719Z" fill="#21B1CD"/>
    <path d="M9.27654 24.6094C9.22341 24.5672 9.21872 24.4781 9.26716 24.4156C9.31091 24.3609 9.4156 24.3578 9.4656 24.4109C9.51716 24.4656 9.51247 24.5656 9.45935 24.6016C9.39216 24.6453 9.32654 24.6484 9.27654 24.6094Z" fill="#29315D"/>
    <path d="M22.6094 24.6297C22.5547 24.6094 22.5312 24.5719 22.5312 24.5094C22.5312 24.4156 22.5656 24.375 22.6422 24.375C22.7172 24.375 22.7969 24.4422 22.7969 24.5062C22.7969 24.5844 22.6844 24.6594 22.6094 24.6297Z" fill="#29315D"/>
    <path d="M10.8125 24.5922C10.7859 24.5859 10.7516 24.5703 10.7359 24.5563C10.7156 24.5375 10.6766 24.5313 10.5766 24.5313C10.3406 24.5313 10.2656 24.4859 10.2531 24.3375C10.2469 24.2625 10.2516 24.25 10.2937 24.2016C10.3391 24.1516 10.3469 24.1484 10.4797 24.1375C10.5547 24.1328 10.7187 24.1266 10.8437 24.1266L11.0703 24.1234L11.0297 24.0891C11.0062 24.0703 10.9406 24.0203 10.8812 23.9766C10.6281 23.7938 10.3906 23.5234 10.2391 23.2453C10.1156 23.0188 10.0469 22.8234 9.99843 22.5547C9.98593 22.4891 9.97968 20.6234 9.97499 16.1328C9.96874 9.42813 9.96718 9.58594 10.0375 9.33594C10.1375 8.97344 10.3906 8.56563 10.6656 8.32031C10.9891 8.03125 11.4125 7.82969 11.8047 7.77344C11.9031 7.75938 20.1812 7.75938 20.2516 7.77344C20.5406 7.82969 20.6984 7.88438 20.9141 8.00469C21.1141 8.11563 21.2391 8.20625 21.3797 8.34219C21.7562 8.70625 21.9656 9.10625 22.0141 9.55938C22.0266 9.675 22.0312 11.5125 22.0312 16.0672C22.0312 22.9156 22.0359 22.4797 21.9531 22.8C21.9203 22.925 21.825 23.1563 21.7547 23.2797C21.6047 23.5406 21.3094 23.8531 21.0437 24.0313C20.9594 24.0875 20.8922 24.1359 20.8906 24.1406C20.8906 24.1453 21.0641 24.1453 21.2781 24.1438C21.6594 24.1375 21.6641 24.1391 21.7094 24.1734C21.7578 24.2125 21.7969 24.2906 21.7969 24.3516C21.7969 24.375 21.775 24.4156 21.7437 24.45L21.6906 24.5078L21.5312 24.5125C21.3812 24.5188 21.3719 24.5203 21.3594 24.5563C21.3516 24.5766 21.3391 24.5953 21.3328 24.5953C21.325 24.5969 20.8859 24.6 20.3562 24.6016C19.6234 24.6031 19.3984 24.6 19.4172 24.5859C19.4375 24.5703 19.4312 24.5625 19.3734 24.5344C19.3359 24.5156 19.3062 24.4953 19.3094 24.4891C19.3109 24.4813 19.2891 24.475 19.2578 24.4719C19.2125 24.4672 19.2 24.4734 19.1891 24.5047C19.175 24.5406 19.1484 24.5563 19.0344 24.5922C18.9844 24.6078 18.2062 24.6016 18.1891 24.5844C18.1859 24.5813 18.2297 24.5781 18.2875 24.5781C18.3531 24.5781 18.3891 24.5719 18.3828 24.5625C18.3781 24.5547 18.3922 24.5297 18.4141 24.5094C18.4547 24.4719 18.4547 24.4703 18.4234 24.4547C18.3812 24.4313 18.0281 24.4328 17.9469 24.4563C17.8672 24.4781 17.8625 24.4828 17.8906 24.5C17.9328 24.5266 17.8937 24.5328 17.7094 24.5266C17.5844 24.5234 17.5359 24.5172 17.5594 24.5094C17.5844 24.5 17.5906 24.4922 17.5781 24.4844C17.5406 24.4609 16.5156 24.4531 16.4266 24.475C16.3969 24.4828 16.3906 24.4906 16.4047 24.4984C16.4234 24.5109 16.3984 24.5219 16.3328 24.5344C16.325 24.5344 16.2984 24.5453 16.2703 24.5578C16.2109 24.5813 15.8672 24.5859 15.7812 24.5641C15.7516 24.5563 15.7359 24.55 15.7484 24.5484C15.7656 24.5469 15.7641 24.5406 15.7406 24.5234C15.725 24.5109 15.7187 24.5 15.7266 24.5C15.7359 24.4984 15.7281 24.4922 15.7109 24.4844C15.6562 24.4609 15.4094 24.4656 15.3953 24.4906C15.3891 24.5016 15.3437 24.5313 15.2969 24.5563C15.2125 24.6 15.2078 24.6016 14.9219 24.6047C14.7625 24.6063 14.6562 24.6016 14.6859 24.5969L14.7391 24.5859L14.6687 24.5516C14.6297 24.5313 14.5922 24.5156 14.5844 24.5156C14.5766 24.5156 14.5609 24.5016 14.55 24.4844C14.5312 24.4531 14.4531 24.4422 14.4 24.4625C14.3781 24.4703 14.3781 24.4766 14.3937 24.4969C14.4094 24.5156 14.4094 24.5188 14.3953 24.5094C14.3828 24.5031 14.375 24.5063 14.375 24.5188C14.375 24.5438 14.3062 24.575 14.2422 24.5797C14.0937 24.5906 13.9562 24.5766 13.925 24.55C13.8984 24.5266 13.8953 24.5172 13.9109 24.5016C13.925 24.4859 13.9234 24.4766 13.8984 24.4594C13.8734 24.4406 13.8172 24.4375 13.6016 24.4422C13.2859 24.4484 13.1594 24.4688 13.2953 24.4922C13.3734 24.5047 13.3859 24.5203 13.3359 24.5469C13.3031 24.5641 13.2844 24.5625 13.2 24.5344C13.1172 24.5078 13.1094 24.5016 13.1516 24.5016C13.2266 24.5 13.2266 24.4734 13.1516 24.4703C13.1156 24.4688 13.0547 24.4656 13.0156 24.4641C12.9484 24.4609 12.9453 24.4625 12.9437 24.5047C12.9422 24.5297 12.9328 24.5563 12.9203 24.5641C12.9016 24.575 12.9016 24.5781 12.9203 24.5781C12.9328 24.5781 12.9375 24.5828 12.9312 24.5906C12.9172 24.6047 10.8812 24.6063 10.8125 24.5922ZM19.8859 23.3516C19.9828 23.3484 20.1031 23.3344 20.1562 23.3203C20.5609 23.2156 20.8969 22.8953 21.0422 22.4766C21.1375 22.2031 21.1297 22.6484 21.1391 16.5188C21.1484 11.1688 21.15 10.9188 21.1766 10.9047C21.1922 10.8953 21.2578 10.8313 21.325 10.7625C21.3906 10.6938 21.4656 10.6266 21.4906 10.6141L21.5344 10.5906L21.5266 10.0813C21.5187 9.4875 21.5109 9.44219 21.3687 9.15C21.2641 8.93594 21.1484 8.79063 20.9469 8.61875C20.7656 8.46406 20.5859 8.36563 20.3672 8.3L20.2109 8.25313L19.2953 8.24219L18.3797 8.23281L18.3703 8.54219C18.3656 8.77031 18.3562 8.87344 18.3359 8.9375C18.2422 9.24375 17.9594 9.49219 17.6609 9.53281C17.5812 9.54219 16.9875 9.54688 15.9375 9.54375C14.3672 9.53906 14.3344 9.5375 14.2312 9.50625C14 9.43438 13.8406 9.29219 13.7266 9.05469C13.6437 8.88125 13.6234 8.77188 13.6266 8.48438C13.6266 8.35625 13.6203 8.25469 13.6125 8.24688C13.6016 8.23594 13.2828 8.23281 12.7156 8.2375L11.8359 8.24531L11.6797 8.28594C11.3812 8.36563 11.0562 8.55781 10.8656 8.77031C10.725 8.92656 10.5859 9.1625 10.5344 9.33125C10.4453 9.61719 10.4516 9.15781 10.4531 15.7625C10.4547 21.1719 10.4562 21.8422 10.4781 21.9344C10.5047 22.0469 10.6141 22.3391 10.6766 22.4625C10.7281 22.5641 10.9109 22.7984 11.025 22.9094C11.1453 23.025 11.3234 23.15 11.4703 23.2234C11.6578 23.3156 11.7969 23.3453 12.1016 23.3578C12.3844 23.3688 19.5906 23.3641 19.8859 23.3516ZM10.5 22.2891C10.5078 22.2578 10.5 22.2188 10.4844 22.2188C10.475 22.2188 10.4687 22.2609 10.4703 22.3172C10.4719 22.4 10.4734 22.4063 10.4844 22.3594C10.4906 22.3297 10.4969 22.2984 10.5 22.2891ZM16.6484 9.07969C16.7609 9.07344 16.8391 9.06719 16.825 9.06563C16.8094 9.06406 16.7969 9.05625 16.7969 9.05C16.7969 9.04219 16.7781 9.02813 16.7562 9.01719C16.7156 9 16.7156 8.99844 16.7437 8.96719C16.7672 8.94219 16.7687 8.93281 16.7516 8.92344C16.7359 8.9125 16.7391 8.90313 16.7672 8.87656C16.7875 8.85781 16.8156 8.83281 16.8297 8.82031C16.8437 8.80781 16.8656 8.79688 16.8797 8.79688C16.8953 8.79688 16.9062 8.79063 16.9062 8.78125C16.9062 8.75313 16.875 8.76406 16.8156 8.8125L16.7578 8.85938L16.0109 8.85156C15.5141 8.84688 15.2547 8.83906 15.2328 8.82813C15.1859 8.80156 15.1406 8.71875 15.1406 8.65469C15.1406 8.62188 15.1562 8.57656 15.1766 8.54531C15.2453 8.44375 15.2312 8.44531 16 8.44531C16.3828 8.44531 16.7187 8.45 16.7469 8.45625C16.7906 8.46406 16.8031 8.45938 16.8312 8.42031C16.85 8.39531 16.8781 8.375 16.8953 8.375C16.9156 8.375 16.9219 8.36719 16.9156 8.35156C16.9109 8.33594 16.9187 8.32656 16.9422 8.32188C17 8.30938 17.2328 8.29375 17.4219 8.2875C17.5203 8.28438 17.6234 8.28125 17.6484 8.27969L17.6953 8.27813L17.6406 8.26563C17.6109 8.25781 16.8 8.25156 15.8406 8.25L14.0937 8.24844V8.49063C14.0937 8.775 14.1156 8.85938 14.2234 8.97656C14.3328 9.09688 14.2859 9.09219 15.4297 9.09063C15.9891 9.09063 16.5375 9.08438 16.6484 9.07969Z" fill="#29315D"/>
    <path d="M19.4297 23.0984C19.3437 23.0953 17.8562 23.0875 16.125 23.0813L12.9766 23.0688L12.875 23.0328C12.6 22.9359 12.4547 22.8219 12.2859 22.5703C12.2344 22.4922 12.1781 22.4188 12.1641 22.4063C12.1156 22.3672 11.9719 22.1641 11.9234 22.0672C11.7891 21.8031 11.8 21.4656 11.9547 21.1703C12.0734 20.9422 12.3703 20.725 12.6578 20.6563C12.7875 20.625 12.8406 20.625 16.0281 20.625C19.6219 20.625 19.4016 20.6188 19.6094 20.7281C19.8234 20.8406 20.0234 21.0422 20.1047 21.2313C20.1375 21.3063 20.1578 21.3313 20.1875 21.3391C20.3578 21.3797 20.6 21.6531 20.6641 21.8766C20.7094 22.0344 20.7031 22.2734 20.65 22.4328C20.5891 22.6172 20.4422 22.8141 20.2891 22.9219C20.175 23 19.7594 23.1156 19.625 23.1063C19.6031 23.1047 19.5156 23.1 19.4297 23.0984ZM19.3125 22.2016C19.4875 22.1672 19.6219 22.0609 19.7016 21.8922C19.7375 21.8156 19.7422 21.7859 19.7422 21.6406C19.7422 21.4922 19.7375 21.4688 19.7 21.3969C19.6172 21.2406 19.5094 21.1484 19.3594 21.1031C19.2828 21.0797 18.9672 21.0781 16.0156 21.0766C14.2234 21.075 12.7375 21.0797 12.7109 21.0859C12.6219 21.1078 12.4812 21.1938 12.4156 21.2672C12.2719 21.4266 12.2281 21.6984 12.3187 21.8719C12.3687 21.9688 12.4656 22.0797 12.5422 22.1266C12.6859 22.2156 12.4703 22.2109 15.9937 22.2141C18.2437 22.2172 19.2531 22.2125 19.3125 22.2016Z" fill="#29315D"/>
    <path d="M16.1719 20.2031C16.0484 20.1875 15.8031 20.1016 15.6641 20.025C15.5344 19.9516 15.4062 19.8313 15.2969 19.6813C15.25 19.6172 15.1531 19.4859 15.0828 19.3922C14.8594 19.0922 14.7812 18.8656 14.8047 18.5703C14.8359 18.1359 15.0703 17.7875 15.4641 17.5875L15.5469 17.5469L15.4828 17.4891C15.4266 17.4375 15.3328 17.2953 15.3734 17.3188C15.3812 17.325 15.4078 17.3109 15.4328 17.2891L15.4766 17.2516L15.4156 17.25C15.2609 17.25 15.1203 17.1516 15.0391 16.9891L14.9922 16.8984V16.4688C14.9922 16.0656 14.9953 16.0297 15.0297 15.8984C15.1719 15.3578 15.4687 14.9703 15.8953 14.7672C16.2016 14.6203 16.3437 14.4484 16.3437 14.2219C16.3437 14.1094 16.3 14.0203 16.2016 13.9313C16.1094 13.8484 16.0125 13.8125 15.8828 13.8125C15.7219 13.8125 15.6328 13.8484 15.5219 13.9594C15.3781 14.1031 15.3047 14.2625 15.2812 14.4813C15.25 14.7719 15.1 14.9375 14.825 14.9844C14.6656 15.0125 13.8109 14.9969 13.7156 14.9656C13.6719 14.9516 13.6406 14.9469 13.6406 14.9563C13.6406 14.9813 13.4531 14.75 13.4187 14.6813C13.3437 14.5344 13.3281 14.3672 13.3594 14.0453C13.3906 13.7328 13.4844 13.4344 13.6344 13.175C13.7359 12.9969 13.7594 12.9656 13.9437 12.7516C14.2656 12.3797 14.6984 12.0953 15.1484 11.9641C15.3266 11.9125 15.3797 11.8984 15.575 11.8609C15.6219 11.8516 15.7828 11.8438 15.9359 11.8438C16.4266 11.8438 16.7016 11.9063 17.1172 12.1125C17.3359 12.2219 17.4469 12.2969 17.6453 12.4688C17.9516 12.7344 18.1375 13 18.2703 13.3641C18.3109 13.475 18.3437 13.5813 18.3437 13.6016C18.3437 13.6219 18.3594 13.6719 18.3766 13.7141L18.4109 13.7891L18.425 13.7344C18.4328 13.7047 18.4516 13.6563 18.4656 13.6281C18.4859 13.5844 18.4969 13.5781 18.5281 13.5859C18.5484 13.5906 18.5734 13.5875 18.5844 13.5797C18.6187 13.5516 18.8031 13.8625 18.8766 14.0734C18.9484 14.2797 18.975 14.6594 18.9375 14.9297C18.8797 15.3328 18.6172 15.8156 18.2937 16.1188C18.0328 16.3625 17.5219 16.6266 17.2312 16.6688L17.1484 16.6797L17.1391 16.9609C17.1281 17.3203 17.1078 17.3703 16.9266 17.4781C16.8375 17.5313 16.7797 17.5469 16.6328 17.5594L16.5078 17.5703L16.6406 17.6594C16.7719 17.7469 16.925 17.9047 17.0156 18.0484C17.0453 18.0969 17.0703 18.1141 17.1219 18.1281C17.2766 18.1672 17.4766 18.3438 17.5828 18.5344C17.6703 18.6922 17.6922 18.7984 17.6844 19.0313C17.6766 19.2063 17.6703 19.2406 17.625 19.3594C17.5953 19.4328 17.5484 19.5344 17.5172 19.5859C17.4156 19.7625 17.1797 19.9766 16.9953 20.0609C16.6937 20.1984 16.4656 20.2375 16.1719 20.2031ZM16.1828 19.3359C16.3266 19.2906 16.4781 19.1953 16.5547 19.1031C16.6328 19.0063 16.7 18.8531 16.7203 18.7156C16.7437 18.5719 16.7187 18.4438 16.6375 18.2813C16.5219 18.0547 16.1656 17.8672 15.9094 17.8984C15.7172 17.9219 15.5672 17.9984 15.4328 18.1391C15.225 18.3563 15.1828 18.6594 15.3203 18.9484C15.4156 19.1516 15.5562 19.2672 15.7969 19.3391C15.95 19.3844 16.0344 19.3828 16.1828 19.3359ZM16.5 16.7391C16.5 16.3172 16.6281 16.0922 17.0172 15.8203C17.4516 15.5188 17.6656 15.2922 17.8266 14.9609C17.95 14.7109 17.9953 14.4625 17.9797 14.1172C17.9609 13.7391 17.8406 13.4125 17.5969 13.0828C17.3297 12.725 16.8859 12.4438 16.4094 12.3344C16.2469 12.2969 16.1953 12.2922 15.9531 12.2922C15.7312 12.2922 15.65 12.2984 15.5234 12.3266C15.3031 12.3734 15.1437 12.4281 14.9516 12.5234C14.3891 12.7984 14.0141 13.2344 13.8562 13.7969C13.8094 13.9656 13.8062 13.9938 13.8047 14.2313V14.4875L13.8484 14.525L13.8922 14.5625H14.3281C14.6859 14.5625 14.7672 14.5578 14.7859 14.5406C14.7984 14.5281 14.8203 14.4438 14.8344 14.3531C14.8484 14.2625 14.8703 14.1547 14.8844 14.1141C14.9719 13.8531 15.1859 13.5953 15.4047 13.4859C15.5922 13.3922 15.6953 13.3672 15.8984 13.3672C16.0453 13.3688 16.1094 13.3766 16.1953 13.4031C16.4437 13.4781 16.6719 13.6891 16.7516 13.9141C16.8 14.05 16.8219 14.2641 16.8 14.3813C16.7453 14.6766 16.5656 14.8844 16.1594 15.1234C15.9 15.2766 15.7891 15.3703 15.6609 15.5484C15.5656 15.6781 15.5016 15.8172 15.4594 15.9813C15.425 16.1141 15.4219 16.1625 15.4219 16.4641C15.4219 16.7953 15.4219 16.7984 15.4578 16.8125C15.4766 16.8203 15.7187 16.8266 15.9969 16.8266L16.5 16.8281V16.7391Z" fill="#29315D"/>
    <path d="M21.1781 10.2469C21.1593 10.2172 21.1484 9.54688 21.1671 9.54688C21.1828 9.54688 21.2109 10.2469 21.1968 10.2609C21.1937 10.2641 21.1843 10.2578 21.1781 10.2469Z" fill="#29315D"/>
    <path d="M13.0328 24.6031C13.0359 24.6 13.1234 24.5938 13.2265 24.5906C13.3437 24.5844 13.3875 24.5859 13.3437 24.5938C13.2734 24.6063 13.0203 24.6141 13.0328 24.6031Z" fill="#29315D"/>
  </g>
  <defs>
    <clipPath id="clip0_5_1750">
      <rect width="32" height="32" fill="white"/>
    </clipPath>
  </defs>
</svg>